<?xml version="1.0" encoding="UTF-8"?>
<svg id="Layer_1" data-name="Layer 1" xmlns="http://www.w3.org/2000/svg" xmlns:xlink="http://www.w3.org/1999/xlink" viewBox="0 0 492 678">
  <defs>
    <style>
      .cls-1 {
        fill: url(#linear-gradient-2);
      }

      .cls-2 {
        fill: #fff;
      }

      .cls-3 {
        fill: url(#linear-gradient-17);
      }

      .cls-4 {
        fill: url(#linear-gradient-15);
      }

      .cls-5 {
        fill: url(#linear-gradient-18);
      }

      .cls-6 {
        fill: url(#linear-gradient-28);
      }

      .cls-7 {
        fill: url(#linear-gradient-14);
      }

      .cls-8 {
        fill: url(#linear-gradient-36);
      }

      .cls-9 {
        fill: url(#linear-gradient-20);
      }

      .cls-10 {
        fill: url(#linear-gradient-6);
      }

      .cls-11 {
        fill: url(#linear-gradient-35);
      }

      .cls-12 {
        fill: url(#linear-gradient-32);
      }

      .cls-13 {
        fill: url(#linear-gradient-11);
      }

      .cls-14 {
        fill: url(#linear-gradient-10);
      }

      .cls-15 {
        fill: url(#linear-gradient-37);
      }

      .cls-16 {
        fill: url(#linear-gradient-16);
      }

      .cls-17 {
        fill: url(#linear-gradient-31);
      }

      .cls-18 {
        fill: url(#linear-gradient-21);
      }

      .cls-19 {
        fill: url(#linear-gradient-25);
      }

      .cls-20 {
        fill: url(#linear-gradient-5);
      }

      .cls-21 {
        fill: url(#linear-gradient-34);
      }

      .cls-22 {
        fill: url(#linear-gradient-7);
      }

      .cls-23 {
        fill: url(#linear-gradient-24);
      }

      .cls-24 {
        fill: url(#linear-gradient-9);
      }

      .cls-25 {
        fill: url(#linear-gradient-22);
      }

      .cls-26 {
        fill: url(#linear-gradient-3);
      }

      .cls-27 {
        fill: url(#linear-gradient);
      }

      .cls-28 {
        fill: url(#linear-gradient-27);
      }

      .cls-29 {
        fill: url(#linear-gradient-33);
      }

      .cls-30 {
        fill: url(#linear-gradient-38);
      }

      .cls-31 {
        fill: url(#linear-gradient-29);
      }

      .cls-32 {
        fill: url(#linear-gradient-30);
      }

      .cls-33 {
        fill: url(#linear-gradient-23);
      }

      .cls-34 {
        fill: url(#linear-gradient-19);
      }

      .cls-35 {
        fill: url(#linear-gradient-4);
      }

      .cls-36 {
        fill: #010101;
      }

      .cls-37 {
        fill: url(#linear-gradient-8);
      }

      .cls-38 {
        fill: url(#linear-gradient-12);
      }

      .cls-39 {
        fill: url(#linear-gradient-13);
      }

      .cls-40 {
        fill: url(#linear-gradient-26);
      }
    </style>
    <linearGradient id="linear-gradient" x1="246" y1="646.78" x2="246" y2="17.22" gradientUnits="userSpaceOnUse">
      <stop offset="0" stop-color="#cc984b"/>
      <stop offset="1" stop-color="#f4eb83"/>
    </linearGradient>
    <linearGradient id="linear-gradient-2" x1="62.07" y1="217.21" x2="185.5" y2="217.21" gradientUnits="userSpaceOnUse">
      <stop offset="0" stop-color="#f4eb83"/>
      <stop offset="1" stop-color="#cc984b"/>
    </linearGradient>
    <linearGradient id="linear-gradient-3" x1="89.11" y1="212.22" x2="206.61" y2="212.22" gradientUnits="userSpaceOnUse">
      <stop offset="0" stop-color="#cc984b"/>
      <stop offset="1" stop-color="#f4eb83"/>
    </linearGradient>
    <linearGradient id="linear-gradient-4" x1="49.23" y1="179.65" x2="74.38" y2="179.65" xlink:href="#linear-gradient-2"/>
    <linearGradient id="linear-gradient-5" x1="49.29" y1="178.16" x2="74.27" y2="178.16" xlink:href="#linear-gradient"/>
    <linearGradient id="linear-gradient-6" x1="155.85" y1="135.39" x2="184.07" y2="135.39" xlink:href="#linear-gradient-2"/>
    <linearGradient id="linear-gradient-7" x1="155.92" y1="133.72" x2="183.95" y2="133.72" xlink:href="#linear-gradient"/>
    <linearGradient id="linear-gradient-8" x1="-2803.65" y1="217.23" x2="-2680.23" y2="217.23" gradientTransform="translate(-2373.72) rotate(-180) scale(1 -1)" xlink:href="#linear-gradient-2"/>
    <linearGradient id="linear-gradient-9" x1="-2776.61" y1="212.24" x2="-2659.11" y2="212.24" gradientTransform="translate(-2373.72) rotate(-180) scale(1 -1)" xlink:href="#linear-gradient"/>
    <linearGradient id="linear-gradient-10" x1="198.5" y1="144.59" x2="246" y2="144.59" xlink:href="#linear-gradient-2"/>
    <linearGradient id="linear-gradient-11" x1="202.04" y1="158.31" x2="246" y2="158.31" xlink:href="#linear-gradient-3"/>
    <linearGradient id="linear-gradient-12" x1="-2667.22" y1="144.61" x2="-2619.72" y2="144.61" gradientTransform="translate(-2373.72) rotate(-180) scale(1 -1)" xlink:href="#linear-gradient-2"/>
    <linearGradient id="linear-gradient-13" x1="-2663.68" y1="158.33" x2="-2619.72" y2="158.33" gradientTransform="translate(-2373.72) rotate(-180) scale(1 -1)" xlink:href="#linear-gradient-3"/>
    <linearGradient id="linear-gradient-14" x1="-2816.5" y1="179.67" x2="-2791.34" y2="179.67" gradientTransform="translate(-2373.72) rotate(-180) scale(1 -1)" xlink:href="#linear-gradient-2"/>
    <linearGradient id="linear-gradient-15" x1="-2816.44" y1="178.18" x2="-2791.46" y2="178.18" gradientTransform="translate(-2373.72) rotate(-180) scale(1 -1)" xlink:href="#linear-gradient"/>
    <linearGradient id="linear-gradient-16" x1="-2709.87" y1="135.41" x2="-2681.65" y2="135.41" gradientTransform="translate(-2373.72) rotate(-180) scale(1 -1)" xlink:href="#linear-gradient-2"/>
    <linearGradient id="linear-gradient-17" x1="-2709.8" y1="133.74" x2="-2681.78" y2="133.74" gradientTransform="translate(-2373.72) rotate(-180) scale(1 -1)" xlink:href="#linear-gradient"/>
    <linearGradient id="linear-gradient-18" x1="68.65" y1="251.35" x2="246.4" y2="251.35" xlink:href="#linear-gradient-2"/>
    <linearGradient id="linear-gradient-19" x1="79.36" y1="261.36" x2="246.4" y2="261.36" xlink:href="#linear-gradient"/>
    <linearGradient id="linear-gradient-20" x1="246.4" y1="250.88" x2="424.32" y2="250.88" xlink:href="#linear-gradient-2"/>
    <linearGradient id="linear-gradient-21" x1="246.4" y1="260.89" x2="413.43" y2="260.89" xlink:href="#linear-gradient"/>
    <linearGradient id="linear-gradient-22" x1="230.6" y1="273.45" x2="261.21" y2="273.45" gradientUnits="userSpaceOnUse">
      <stop offset="0" stop-color="#511d25"/>
      <stop offset="1" stop-color="#94343b"/>
    </linearGradient>
    <linearGradient id="linear-gradient-23" x1="234.21" y1="276.68" x2="261.21" y2="276.68" gradientUnits="userSpaceOnUse">
      <stop offset="0" stop-color="#94343b"/>
      <stop offset="1" stop-color="#511d25"/>
    </linearGradient>
    <linearGradient id="linear-gradient-24" x1="-30.7" y1="1112.54" x2="-13.02" y2="1112.54" gradientTransform="translate(-417.99 -659.95) rotate(-29.8)" xlink:href="#linear-gradient-22"/>
    <linearGradient id="linear-gradient-25" x1="-28.34" y1="1114.31" x2="-13.02" y2="1114.31" gradientTransform="translate(-417.99 -659.95) rotate(-29.8)" xlink:href="#linear-gradient-23"/>
    <linearGradient id="linear-gradient-26" x1="-2433.41" y1="-263.63" x2="-2415.73" y2="-263.63" gradientTransform="translate(-1858.92 -659.95) rotate(-150.2) scale(1 -1)" xlink:href="#linear-gradient-22"/>
    <linearGradient id="linear-gradient-27" x1="-2431.05" y1="-261.86" x2="-2415.73" y2="-261.86" gradientTransform="translate(-1858.92 -659.95) rotate(-150.2) scale(1 -1)" xlink:href="#linear-gradient-23"/>
    <linearGradient id="linear-gradient-28" x1="249.86" y1="333.66" x2="249.86" y2="360.61" xlink:href="#linear-gradient-2"/>
    <linearGradient id="linear-gradient-29" x1="163.9" y1="-375.62" x2="200.04" y2="-375.62" gradientTransform="translate(-36.2 374.65) rotate(16.77)" xlink:href="#linear-gradient-2"/>
    <linearGradient id="linear-gradient-30" x1="163.99" y1="-377.76" x2="199.88" y2="-377.76" gradientTransform="translate(-36.2 374.65) rotate(16.77)" xlink:href="#linear-gradient"/>
    <linearGradient id="linear-gradient-31" x1="249.86" y1="358.1" x2="249.86" y2="369.35" xlink:href="#linear-gradient-2"/>
    <linearGradient id="linear-gradient-32" x1="249.86" y1="372.77" x2="249.86" y2="384.03" xlink:href="#linear-gradient-2"/>
    <linearGradient id="linear-gradient-33" x1="121.39" y1="542.36" x2="109.31" y2="404.35" xlink:href="#linear-gradient"/>
    <linearGradient id="linear-gradient-34" x1="175.67" y1="516.54" x2="165.95" y2="405.41" xlink:href="#linear-gradient"/>
    <linearGradient id="linear-gradient-35" x1="237.43" y1="504.39" x2="228.68" y2="404.36" xlink:href="#linear-gradient"/>
    <linearGradient id="linear-gradient-36" x1="321.62" y1="518.49" x2="311.67" y2="404.7" xlink:href="#linear-gradient"/>
    <linearGradient id="linear-gradient-37" x1="383.88" y1="542.46" x2="371.89" y2="405.4" xlink:href="#linear-gradient"/>
    <linearGradient id="linear-gradient-38" x1="255.56" y1="553.68" x2="246.12" y2="445.78" gradientUnits="userSpaceOnUse">
      <stop offset="0" stop-color="#f4eb83"/>
      <stop offset=".19" stop-color="#f0e47e"/>
      <stop offset=".45" stop-color="#e8d272"/>
      <stop offset=".75" stop-color="#dab65f"/>
      <stop offset="1" stop-color="#cc984b"/>
    </linearGradient>
  </defs>
  <path class="cls-27" d="m432.55,355.39c2.09-6.67,2.02-13.7-.23-20.46-1.15-3.42-2.77-6.56-4.84-9.36l15.99-52.24c.55-1.8.74-2.42.83-2.69l3.75-12.26c2.9-9.44,5.37-17.54,7.08-23.1,1.55-5.06,1.82-10.41.82-15.56.39-1.4.77-2.8,1.13-4.21,11.26-8.42,17.92-21.64,17.92-35.84,0-1.44-.07-2.9-.22-4.49-2.01-20.02-17.27-36.34-37.1-39.69-2.44-.41-4.95-.61-7.47-.61-22.31,0-41.4,16.68-44.4,38.85-.26,1.97-.39,3.97-.39,5.93,0,3.62.43,7.2,1.29,10.68-6.4,7.81-19.02,20.9-31.7,20.9-.29,0-.59,0-.89-.02-2.4-3.96-5.72-15.81-4.63-38.5,11.88-8.72,18.88-22.44,18.88-37.31,0-1.53-.08-3.05-.23-4.65-2.08-20.7-17.86-37.57-38.37-41.03-2.55-.44-5.15-.65-7.72-.65-13.68,0-26.29,5.94-34.92,15.88-.55-1.96-1.08-3.92-1.59-5.88,4.06-5.05,7.15-10.89,9.01-17.08.65-2.17,1.16-4.39,1.51-6.59,3.96-24.72-11.15-48.83-35.15-56.06-2.68-.8-5.46-1.39-8.24-1.74-2.07-.26-4.18-.39-6.28-.39-20.4,0-38.65,12.21-46.49,31.14-.62,1.53-1.17,3.09-1.64,4.64-3.87,12.86-2.51,26.46,3.84,38.29,1.33,2.49,2.86,4.84,4.56,7.05-.56,2.2-1.15,4.4-1.77,6.61-8.63-9.94-21.24-15.87-34.92-15.87-2.55,0-5.15.21-7.72.64-20.52,3.46-36.3,20.37-38.38,41.18-.14,1.55-.22,3.07-.22,4.5,0,14.88,7,28.59,18.89,37.31,1.09,22.71-2.24,34.55-4.63,38.5-.3.02-.61.02-.89.02-9.4,0-20.84-7.58-31.7-20.9.86-3.49,1.3-7.07,1.3-10.69,0-2-.14-4.02-.41-6.02-2.98-22.1-22.06-38.77-44.39-38.77-2.49,0-5,.2-7.47.61-19.84,3.35-35.09,19.71-37.11,39.81-.14,1.46-.21,2.92-.21,4.36,0,14.2,6.65,27.41,17.93,35.84.55,2.17,1.16,4.37,1.8,6.57-.62,4.61-.24,9.34,1.11,13.77l29.98,97.91c-.15.4-.3.8-.42,1.21-2.26,6.75-2.33,13.78-.23,20.46-2.55,8.22-1.93,16.89,1.78,24.76H23.13l30.65,34.8v140.99l192.94,90.82,191.49-90.83v-140.98l30.65-34.8h-38.09c3.71-7.87,4.33-16.56,1.77-24.78Zm7.8,37.67l-15.02,17.05v137.69l-178.62,84.72-180.04-84.74v-137.67l-15.02-17.05h46.97l-12.63-11.26c-2.88-2.57-4.46-5.26-5.15-6.65-2.76-5.52-3.05-11.7-.83-17.43l.92-2.36-.93-2.35c-1.81-4.58-1.93-9.28-.36-14,.25-.75.55-1.51.89-2.25l1.03-2.24-31.37-102.47c-.91-2.98-1.09-6.17-.52-9.23l.3-1.54-.45-1.5c-.97-3.27-1.86-6.53-2.62-9.7l-.59-2.46-2.11-1.39c-8.94-5.92-14.27-15.86-14.27-26.59,0-1.02.05-2.07.15-3.09,1.43-14.32,12.3-25.99,26.41-28.37,1.76-.3,3.55-.44,5.34-.44,15.9,0,29.49,11.87,31.62,27.6.19,1.43.29,2.87.29,4.3,0,3.43-.55,6.81-1.63,10.07l-1.08,3.24,2.08,2.71c9.98,12.98,25.7,28.45,43.92,28.45.96,0,1.96-.05,3.05-.14,3.15-.3,5.22-1.36,7.15-3.68,6.56-7.87,9.55-27.13,8-51.53l-.2-3.3-2.8-1.75c-9.67-6.08-15.68-16.93-15.68-28.32,0-1.04.05-2.15.16-3.27,1.5-14.99,12.89-27.21,27.7-29.7,1.86-.31,3.74-.47,5.59-.47,13.42,0,25.87,8.38,30.97,20.84l6.59,16.11,5.49-16.52c2.65-7.97,4.98-16.08,6.94-24.12l.8-3.28-2.25-2.53c-1.95-2.18-3.65-4.62-5.06-7.26-4.73-8.8-5.75-18.91-2.86-28.48.35-1.15.76-2.32,1.22-3.44,5.83-14.07,19.4-23.16,34.58-23.16,1.56,0,3.13.09,4.66.29,2.08.27,4.15.7,6.15,1.3,17.84,5.38,29.08,23.31,26.13,41.7-.26,1.64-.64,3.29-1.12,4.9-1.64,5.46-4.57,10.56-8.46,14.74l-2.36,2.55.83,3.38c1.94,7.89,4.22,15.78,6.78,23.47l5.5,16.5,6.59-16.1c5.1-12.48,17.55-20.85,30.97-20.85,1.86,0,3.73.15,5.58.47,14.8,2.49,26.19,14.67,27.69,29.58.11,1.18.17,2.26.17,3.39,0,11.39-6.01,22.25-15.67,28.32l-2.8,1.75-.2,3.3c-1.55,24.39,1.45,43.66,7.99,51.52,1.92,2.33,4,3.4,7.23,3.71,1.03.08,2.03.13,2.99.13,18.23,0,33.94-15.47,43.91-28.45l2.08-2.71-1.08-3.24c-1.08-3.24-1.62-6.62-1.62-10.07,0-1.41.09-2.85.27-4.24,2.14-15.77,15.73-27.66,31.63-27.66,1.8,0,3.59.14,5.32.44,14.13,2.38,24.99,14,26.42,28.22.11,1.17.16,2.2.16,3.24,0,10.73-5.34,20.68-14.26,26.59l-2.11,1.39-.59,2.47c-.61,2.52-1.29,5.09-2.02,7.62l-.49,1.68.43,1.7c.87,3.41.78,7-.26,10.4-1.7,5.56-4.18,13.66-7.07,23.09l-3.74,12.22c-.08.23-.27.87-.84,2.74l-18.1,59.13,2.56,2.73c2,2.13,3.52,4.69,4.49,7.59,1.57,4.71,1.45,9.42-.36,14l-.92,2.35.92,2.35c2.22,5.73,1.93,11.93-.83,17.46-.85,1.69-2.43,4.21-5.15,6.64l-12.6,11.26h39.21Z"/>
  <path class="cls-1" d="m141.1,271.49c-.47.15-.94.3-1.42.44-5.11,1.53-10.15,2.29-14.97,2.29-13.07,0-24.85-5.69-35.6-16.6-.55-.77-1.1-1.55-1.65-2.35-18.56-27.01-23.58-55.36-24.91-67.16-.41-3.61-.47-5.67-.47-5.67,0,0,5.18,11.01,14.69,23.68,13.63,18.15,36.14,39.7,65,37.1,34.39-3.11,34.89-53.38,32.16-83.03l6.61,17.45c14.44,38.12-3.79,82.25-39.43,93.85Z"/>
  <path class="cls-26" d="m206.61,232.75c-15.18,22.71-34.7,43.84-57.4,50.59-5.11,1.53-10.15,2.29-14.97,2.29-17.05,0-31.91-9.68-45.13-28,10.75,10.91,22.53,16.6,35.6,16.6,4.82,0,9.86-.77,14.97-2.29.47-.14.94-.29,1.42-.44,35.65-11.6,53.87-55.73,39.43-93.85l-6.61-17.45c-1.13-12.12-2.78-20.78-2.9-21.39l35.59,93.94Z"/>
  <g>
    <path class="cls-35" d="m74.38,179.65c0,5.97-4.15,10.96-9.73,12.25-.92.22-1.87.33-2.85.33-6.94,0-12.57-5.63-12.57-12.58,0-.43.02-.85.06-1.27.57-5.65,4.87-10.19,10.4-11.13.68-.11,1.39-.18,2.11-.18,6.37,0,11.63,4.73,12.47,10.88.07.56.11,1.12.11,1.7Z"/>
    <path class="cls-20" d="m74.27,177.95c-.54,5.4-4.49,9.78-9.66,10.97-.92.22-1.87.33-2.85.33-6.36,0-11.63-4.74-12.46-10.88.57-5.65,4.87-10.19,10.4-11.13.68-.11,1.39-.18,2.11-.18,6.37,0,11.63,4.73,12.47,10.88Z"/>
    <path class="cls-2" d="m55.19,180.15c0,4.46,2.94,8.23,6.98,9.49-.17.01-.34.02-.5.02-5.49,0-9.94-4.45-9.94-9.95,0-4.92,3.58-9.01,8.28-9.81.54-.09,1.09-.14,1.67-.14,1.04,0,2.03.16,2.97.45-.4.02-.79.06-1.17.12-4.7.79-8.28,4.89-8.28,9.81Z"/>
  </g>
  <g>
    <path class="cls-10" d="m184.07,135.39c0,6.7-4.66,12.3-10.91,13.74-1.03.24-2.1.37-3.2.37-7.79,0-14.11-6.32-14.11-14.11,0-.48.03-.96.07-1.43.64-6.34,5.46-11.44,11.67-12.48.76-.13,1.56-.2,2.37-.2,7.15,0,13.05,5.31,13.99,12.2.08.62.13,1.26.13,1.91Z"/>
    <path class="cls-22" d="m183.95,133.48c-.61,6.05-5.04,10.97-10.84,12.31-1.03.24-2.1.37-3.2.37-7.14,0-13.05-5.31-13.98-12.2.64-6.34,5.46-11.44,11.67-12.48.76-.13,1.56-.2,2.37-.2,7.15,0,13.05,5.31,13.99,12.2Z"/>
    <path class="cls-2" d="m162.33,135.78c0,5.01,3.29,9.24,7.83,10.65-.19.01-.38.02-.56.02-6.16,0-11.15-4.99-11.15-11.16,0-5.52,4.02-10.11,9.28-11,.6-.1,1.23-.16,1.87-.16,1.16,0,2.28.18,3.33.51-.45.02-.89.07-1.31.14-5.27.89-9.28,5.48-9.28,11Z"/>
  </g>
  <path class="cls-37" d="m350.91,271.52c.47.15.94.3,1.42.44,5.11,1.53,10.15,2.29,14.97,2.29,13.07,0,24.85-5.69,35.6-16.6.55-.77,1.1-1.55,1.65-2.35,18.56-27.01,23.58-55.36,24.91-67.16.41-3.61.47-5.67.47-5.67,0,0-5.18,11.01-14.69,23.68-13.63,18.15-36.14,39.7-65,37.1-34.39-3.11-34.89-53.38-32.16-83.03l-6.61,17.45c-14.44,38.12,3.79,82.25,39.43,93.85Z"/>
  <path class="cls-24" d="m285.4,232.77c15.18,22.71,34.7,43.84,57.4,50.59,5.11,1.53,10.15,2.29,14.97,2.29,17.05,0,31.91-9.68,45.13-28-10.75,10.91-22.53,16.6-35.6,16.6-4.82,0-9.86-.77-14.97-2.29-.47-.14-.94-.29-1.42-.44-35.65-11.6-53.87-55.73-39.43-93.85l6.61-17.45c1.13-12.12,2.78-20.78,2.9-21.39l-35.59,93.94Z"/>
  <g>
    <path class="cls-14" d="m246,61.34v89.41l-4.34,12.4c-.02.05-.12.36-.32.89-2.01,5.48-13.29,35.15-31.52,63.8l-7.78-20.54-3.54-9.33c9.98-15.11,39.86-65.44,47.5-136.63Z"/>
    <path class="cls-13" d="m246,88.77v61.98l-4.34,12.4c-.02.05-.12.36-.32.89-2.01,5.48-13.29,35.15-31.52,63.8l-7.78-20.54c10.24-15.98,34.46-58.75,43.96-118.53Z"/>
    <path class="cls-38" d="m246,61.36v89.41s4.34,12.4,4.34,12.4c.02.05.12.36.32.89,2.01,5.48,13.29,35.15,31.52,63.8l7.78-20.54,3.54-9.33c-9.98-15.11-39.86-65.44-47.5-136.63Z"/>
    <path class="cls-39" d="m246,88.79v61.98s4.34,12.4,4.34,12.4c.02.05.12.36.32.89,2.01,5.48,13.29,35.15,31.52,63.8l7.78-20.54c-10.24-15.98-34.46-58.75-43.96-118.53Z"/>
  </g>
  <g>
    <path class="cls-7" d="m417.63,179.67c0,5.97,4.15,10.96,9.73,12.25.92.22,1.87.33,2.85.33,6.94,0,12.57-5.63,12.57-12.58,0-.43-.02-.85-.06-1.27-.57-5.65-4.87-10.19-10.4-11.13-.68-.11-1.39-.18-2.11-.18-6.37,0-11.63,4.73-12.47,10.88-.07.56-.11,1.12-.11,1.7Z"/>
    <path class="cls-4" d="m417.74,177.97c.54,5.4,4.49,9.78,9.66,10.97.92.22,1.87.33,2.85.33,6.36,0,11.63-4.74,12.46-10.88-.57-5.65-4.87-10.19-10.4-11.13-.68-.11-1.39-.18-2.11-.18-6.37,0-11.63,4.73-12.47,10.88Z"/>
    <path class="cls-2" d="m436.82,180.17c0,4.46-2.94,8.23-6.98,9.49.17.01.34.02.5.02,5.49,0,9.94-4.45,9.94-9.95,0-4.92-3.58-9.01-8.28-9.81-.54-.09-1.09-.14-1.67-.14-1.04,0-2.03.16-2.97.45.4.02.79.06,1.17.12,4.7.79,8.28,4.89,8.28,9.81Z"/>
  </g>
  <path class="cls-16" d="m307.93,135.41c0,6.7,4.66,12.3,10.91,13.74,1.03.24,2.1.37,3.2.37,7.79,0,14.11-6.32,14.11-14.11,0-.48-.03-.96-.07-1.43-.64-6.34-5.46-11.44-11.67-12.48-.76-.13-1.56-.2-2.37-.2-7.15,0-13.05,5.31-13.99,12.2-.08.62-.13,1.26-.13,1.91Z"/>
  <path class="cls-3" d="m308.06,133.5c.61,6.05,5.04,10.97,10.84,12.31,1.03.24,2.1.37,3.2.37,7.14,0,13.05-5.31,13.98-12.2-.64-6.34-5.46-11.44-11.67-12.48-.76-.13-1.56-.2-2.37-.2-7.15,0-13.05,5.31-13.99,12.2Z"/>
  <path class="cls-2" d="m329.68,135.8c0,5.01-3.29,9.24-7.83,10.65.19.01.38.02.56.02,6.16,0,11.15-4.99,11.15-11.16,0-5.52-4.02-10.11-9.28-11-.6-.1-1.23-.16-1.87-.16-1.16,0-2.28.18-3.33.51.45.02.89.07,1.31.14,5.27.89,9.28,5.48,9.28,11Z"/>
  <g>
    <path class="cls-5" d="m246.4,165.05v163.14c-15.65,0-31.31.25-46.92.94-7.01.31-14.03.67-21.03,1.09-1.41.08-2.81.17-4.21.26-1.22.07-2.44.15-3.66.23-.31.02-.62.04-.93.07-.99.06-1.98.13-2.97.2-1.75.12-3.5.24-5.24.36-1.34.1-2.67.2-4.01.3-1.22.09-2.42.18-3.63.27-2.98.23-5.95.47-8.93.72-13.45,1.12-26.74,2.9-39.9,4.69-.82.11-1.57.23-2.24.35l-23.35-76.25-10.71-35c2.94,9.03,27.44,78.24,82.17,61.96,58.51-17.4,95.57-123.32,95.57-123.32Z"/>
    <path class="cls-34" d="m246.4,185.07v143.12c-15.65,0-31.31.25-46.92.94-7.01.31-14.03.67-21.03,1.09-1.41.08-2.81.17-4.21.26-1.22.07-2.44.15-3.66.23-.31.02-.62.04-.93.07-.99.06-1.98.13-2.97.2-1.75.12-3.5.24-5.24.36-1.34.1-2.67.2-4.01.3-1.22.09-2.42.18-3.63.27-2.98.23-5.95.47-8.93.72-13.45,1.12-26.74,2.9-39.9,4.69-.82.11-1.57.23-2.24.35l-23.35-76.25c11.65,22.42,35.15,52.96,73.49,41.56,50.52-15.03,85.06-96.06,93.54-117.89Z"/>
    <path class="cls-9" d="m424.32,225.86c-2.41,7.89-6.39,20.87-10.89,35.55h0s-1.92,6.29-1.92,6.29l-.52,1.72-5.96,19.45-.6,1.96-14.05,45.89c-11.73-1.58-23.55-3.1-35.49-4.09-11.15-.94-22.36-1.75-33.59-2.41-7-.42-14.03-.78-21.03-1.09-16.78-.73-33.58-.97-50.38-.93-1.16,0-2.31,0-3.47,0v-163.14c13.12,55.38,119.48,214.74,177.92,60.81Z"/>
    <path class="cls-18" d="m413.43,261.41l-1.92,6.28-.52,1.72-5.96,19.45-.6,1.96-14.05,45.89c-11.73-1.58-23.55-3.1-35.49-4.09-11.15-.94-22.36-1.75-33.59-2.41-7-.42-14.03-.78-21.03-1.09-16.78-.73-33.58-.97-50.38-.93-1.16,0-2.31,0-3.47,0v-143.12c15.67,53.59,105.82,191.06,167.03,76.34Z"/>
  </g>
  <g>
    <polygon class="cls-25" points="261.21 275.36 245.91 300.93 234.21 281.38 230.6 275.36 245.91 245.96 249.28 252.43 261.21 275.36"/>
    <polygon class="cls-33" points="261.21 275.36 245.91 300.93 234.21 281.38 249.28 252.43 261.21 275.36"/>
  </g>
  <g>
    <g>
      <path class="cls-2" d="m103.57,316.18l-14.78-35.12s12.25,14.16,30.02,13.49c0,0-13.72,5-21.11-1.38l5.87,23.01Z"/>
      <g>
        <polygon class="cls-23" points="124.51 313.41 124.16 328.19 112.15 322.66 108.45 320.95 107.65 304.53 111.36 306.48 124.51 313.41"/>
        <polygon class="cls-19" points="124.51 313.41 124.16 328.19 112.15 322.66 111.36 306.48 124.51 313.41"/>
      </g>
    </g>
    <g>
      <path class="cls-2" d="m388.43,316.18l14.78-35.12s-12.25,14.16-30.02,13.49c0,0,13.72,5,21.11-1.38l-5.87,23.01Z"/>
      <g>
        <polygon class="cls-40" points="367.49 313.41 367.83 328.19 379.85 322.66 383.55 320.95 384.35 304.53 380.64 306.48 367.49 313.41"/>
        <polygon class="cls-28" points="367.49 313.41 367.83 328.19 379.85 322.66 380.64 306.48 367.49 313.41"/>
      </g>
    </g>
  </g>
  <path class="cls-6" d="m397.94,350.8c-2.1,3.22-1.81,6.38.44,9.56-78.73-2.33-156.05-2.91-231.72-1.5-21.97.41-43.82.99-65.51,1.75,1.59-2.15,2.29-4.29,1.97-6.44-.14-.95-.48-1.91-1.04-2.87-.54-.94-1.29-1.89-2.25-2.84-3.49-3.46-2.59-4.62,5.11-5.68,13.17-1.79,26.46-3.57,39.9-4.69,2.97-.25,5.95-.49,8.93-.72,1.22-.1,2.42-.18,3.63-.27,1.34-.1,2.67-.2,4.01-.3,1.75-.13,3.49-.24,5.24-.36.98-.07,1.98-.13,2.97-.2.31-.02.62-.05.93-.07l3.66-.23c1.4-.09,2.81-.17,4.21-.25,7.01-.42,14.02-.79,21.03-1.09,15.55-.69,31.14-.94,46.74-.94,1.22,0,2.44,0,3.65,0,1.22,0,2.43,0,3.65,0,15.59,0,31.17.26,46.73.94,7.01.3,14.04.67,21.03,1.09,11.24.66,22.44,1.47,33.59,2.4,13.44,1.12,26.72,2.9,39.9,4.69,7.68,1.05,8.58,2.22,5.1,5.68-.79.78-1.44,1.56-1.94,2.34Z"/>
  <g>
    <path class="cls-31" d="m263.7,72.71c-2.47,8.21-10.26,13.36-18.46,12.82-1.35-.08-2.72-.32-4.06-.73-9.55-2.88-14.97-12.96-12.09-22.52.18-.59.39-1.16.61-1.72,3.12-7.53,10.93-12.01,18.93-11,.99.13,1.98.33,2.97.63,8.76,2.64,14.05,11.33,12.64,20.13-.13.8-.31,1.59-.55,2.39Z"/>
    <path class="cls-32" d="m264.25,70.33c-2.99,7.2-10.24,11.6-17.85,11.09-1.35-.08-2.72-.32-4.06-.73-8.76-2.64-14.04-11.34-12.63-20.13,3.12-7.53,10.93-12.01,18.93-11,.99.13,1.98.33,2.97.63,8.76,2.64,14.05,11.33,12.64,20.13Z"/>
    <path class="cls-2" d="m236.89,65.15c-1.85,6.14.63,12.54,5.66,15.95-.23-.05-.47-.12-.7-.19-7.55-2.28-11.83-10.25-9.56-17.81,2.04-6.77,8.66-10.91,15.45-10.06.77.1,1.56.26,2.35.5,1.43.43,2.73,1.06,3.9,1.86-.55-.14-1.11-.24-1.66-.32-6.79-.85-13.41,3.29-15.45,10.06Z"/>
  </g>
  <path class="cls-17" d="m394.07,369.3c-2.44.07-4.9.05-7.35.05h-136.82v-.04h-.08v.04H113c-2.44,0-4.9.02-7.33-.05-6.07-.18-9.19-2.58-7.16-5.47.38-.55.82-1.09,1.31-1.62.46-.49.88-.99,1.25-1.48.04-.04.07-.08.1-.13,96.4-3.35,195.63-3.26,297.23-.25.08.13.17.25.27.38.36.49.78.98,1.25,1.48.48.53.94,1.07,1.32,1.62,2.03,2.89-1.08,5.29-7.16,5.47Z"/>
  <path class="cls-12" d="m394.07,383.98c-2.44.07-4.9.05-7.35.05h-136.82v-.04h-.08v.04H113c-2.44,0-4.9.02-7.33-.05-6.07-.18-9.19-2.58-7.16-5.47.38-.55.82-1.09,1.31-1.62.46-.49.88-.99,1.25-1.48.04-.04.07-.08.1-.13,96.4-3.35,195.63-3.26,297.23-.25.08.13.17.25.27.38.36.49.78.98,1.25,1.48.48.53.94,1.07,1.32,1.62,2.03,2.89-1.08,5.29-7.16,5.47Z"/>
  <polygon class="cls-2" points="193.04 298.42 246 199.02 279.55 261.36 246 214.53 193.04 298.42"/>
  <g>
    <path class="cls-36" d="m139.58,534.27h3.38l13.83,19.44v-19.44h3.2v24.38h-3.38l-13.83-19.44v19.44h-3.2v-24.38Z"/>
    <path class="cls-36" d="m172.92,549.07l-9.4-14.8h3.62l7.38,11.77,7.38-11.77h3.62l-9.4,14.8v9.58h-3.2v-9.58Z"/>
    <path class="cls-36" d="m186.32,546.53c0-7.45,5.64-12.68,12.57-12.68,4.35,0,8.36,2.09,10.66,5.75l-2.65,1.67c-1.71-2.93-4.63-4.49-8.01-4.49-5.22,0-9.26,3.76-9.26,9.68s4.04,9.68,9.26,9.68c3.48,0,6.48-1.71,8.12-4.49l2.61,1.64c-2.23,3.55-6.13,5.78-10.76,5.78-7.11,0-12.54-5.22-12.54-12.54Z"/>
    <path class="cls-36" d="m223.21,534.27h3.73l9.75,19.61,9.72-19.61h3.73v24.38h-3.2v-18.88l-9.02,18.18h-2.47l-9.02-18.18v18.88h-3.2v-24.38Z"/>
    <path class="cls-36" d="m256.75,534.27h16.72v2.93h-13.51v7.25h11.95v2.93h-11.95v8.36h13.51v2.93h-16.72v-24.38Z"/>
    <path class="cls-36" d="m277.4,546.53c0-7.45,5.64-12.68,12.57-12.68,4.35,0,8.36,2.09,10.66,5.75l-2.65,1.67c-1.71-2.93-4.63-4.49-8.01-4.49-5.22,0-9.26,3.76-9.26,9.68s4.04,9.68,9.26,9.68c3.48,0,6.48-1.71,8.12-4.49l2.61,1.64c-2.23,3.55-6.13,5.78-10.76,5.78-7.11,0-12.54-5.22-12.54-12.54Z"/>
    <path class="cls-36" d="m304.04,546.53c0-7.45,5.64-12.68,12.57-12.68,4.35,0,8.36,2.09,10.66,5.75l-2.65,1.67c-1.71-2.93-4.63-4.49-8.01-4.49-5.22,0-9.26,3.76-9.26,9.68s4.04,9.68,9.26,9.68c3.48,0,6.48-1.71,8.12-4.49l2.61,1.64c-2.23,3.55-6.13,5.78-10.76,5.78-7.11,0-12.54-5.22-12.54-12.54Z"/>
    <path class="cls-36" d="m339.05,534.27h3.45l9.93,24.38h-3.34l-2.58-6.44h-11.46l-2.58,6.44h-3.34l9.93-24.38Zm6.34,15.15l-4.6-11.56-4.63,11.56h9.23Z"/>
  </g>
  <polygon class="cls-36" points="246 589.89 250.37 598.74 260.15 600.16 253.08 607.06 254.74 616.79 246 612.19 237.26 616.79 238.93 607.06 231.86 600.16 241.63 598.74 246 589.89"/>
  <g>
    <g>
      <polygon class="cls-36" points="281.02 584.21 283.88 590.01 290.28 590.94 285.65 595.45 286.74 601.82 281.02 598.82 275.3 601.82 276.39 595.45 271.76 590.94 278.16 590.01 281.02 584.21"/>
      <polygon class="cls-36" points="305.08 577.1 307.39 581.78 312.56 582.53 308.82 586.17 309.7 591.32 305.08 588.89 300.46 591.32 301.34 586.17 297.6 582.53 302.77 581.78 305.08 577.1"/>
      <polygon class="cls-36" points="326.29 570.69 328.03 574.22 331.92 574.79 329.1 577.53 329.77 581.41 326.29 579.58 322.8 581.41 323.47 577.53 320.65 574.79 324.55 574.22 326.29 570.69"/>
    </g>
    <g>
      <polygon class="cls-36" points="210.98 584.21 208.12 590.01 201.72 590.94 206.35 595.45 205.26 601.82 210.98 598.82 216.7 601.82 215.61 595.45 220.24 590.94 213.84 590.01 210.98 584.21"/>
      <polygon class="cls-36" points="186.92 577.1 184.61 581.78 179.44 582.53 183.18 586.17 182.3 591.32 186.92 588.89 191.54 591.32 190.66 586.17 194.4 582.53 189.23 581.78 186.92 577.1"/>
      <polygon class="cls-36" points="165.71 570.69 163.97 574.22 160.08 574.79 162.9 577.53 162.23 581.41 165.71 579.58 169.2 581.41 168.53 577.53 171.35 574.79 167.46 574.22 165.71 570.69"/>
    </g>
  </g>
  <g>
    <g>
      <path class="cls-29" d="m84.7,406.51v28.86c2.91-5.54,4.37-8.21,7.32-13.44,4.5-.28,6.75-.41,11.26-.67-.11,14.33-.2,28.66-.31,42.99,0,1.42-.02,2.84-.03,4.26-2.55,2.17-3.82,3.28-6.35,5.55,2.52,1.16,3.77,1.72,6.29,2.82-.13,17.89-.25,35.78-.38,53.67-2.8,5.48-4.18,8.29-6.94,14.07,2.74-1.54,4.11-2.29,6.87-3.76,5.79-3.09,8.71-4.55,14.58-7.31,2.52-1.18,3.78-1.76,6.31-2.88-2.49-2.69-3.72-4.06-6.2-6.87.2-17.17.39-34.33.6-51.5,2.36-2.18,3.54-3.24,5.9-5.33-2.33-.86-3.49-1.3-5.82-2.2.02-1.14.03-2.27.04-3.41.16-13.64.32-27.28.48-40.92,4.44-.23,6.66-.34,11.11-.55,2.67,4.26,3.99,6.34,6.65,10.41.29-9.55.44-14.32.73-23.85-17.37.01-34.74.04-52.12.07Z"/>
      <path class="cls-21" d="m200.95,449.74c-2.1-1.35-3.21-2.06-5.37-3.46.13-9.49.2-14.24.33-23.73.27-11.26-7.15-16.5-16.13-16.46h-19.24c-8.85-.64-15.88,6.21-15.55,16.81-.17,10.14-.33,20.29-.5,30.43-1.9,1.67-2.93,2.6-4.67,4.18-.19.17-.39.35-.59.54,2.05,1.16,3.08,1.73,5.14,2.85-.23,14.13-.46,28.25-.69,42.37,0,.54-.02.81-.02,1.35-1.13,11.04,6.81,16.32,15.17,12.67v.17c.58-.18.86-.27,1.45-.44,6.94-2.07,10.43-3,17.43-4.65.66-.16.99-.23,1.64-.38,8.69-1.99,15.44-8.11,15.6-18.98.17-13.05.36-26.11.53-39.15,2.27-1.61,3.4-2.4,5.68-3.97-.08-.04-.14-.09-.21-.14Zm-23.09,53.26c-7.07,1.52-10.59,2.38-17.6,4.29.28-16.49.56-32.99.84-49.48,2.18-1.52,3.27-2.27,5.46-3.73-.24-.15-.48-.3-.7-.43-1.7-1.05-2.75-1.7-4.64-2.89.2-11.64.39-23.28.59-34.91,6.98-.18,10.47-.27,17.45-.41-.17,11.09-.36,22.18-.53,33.28-1.76,1.39-2.64,2.1-4.39,3.52.11.1.23.2.34.28,1.49,1.24,2.34,1.94,3.93,3.25-.25,15.74-.51,31.48-.76,47.22Z"/>
      <path class="cls-11" d="m261.97,418.2c-.47-7.58-5.63-11.98-14.26-11.98s-12.62,0-21.03,0h-19.41c1.92,2.39,2.87,3.58,4.8,5.93-.12,12.23-.24,24.46-.37,36.69-.05,5.93-.11,11.85-.17,17.78,1.71-.8,3.91-1.48,6.59-2.01,2.68-.53,5.43-1.19,8.23-1.97.03-4.91.06-9.84.09-14.76.06-10.6.12-21.21.19-31.81,7.28-.05,10.92-.07,18.21-.07h2.71c0,9.55,0,19.11,0,28.66,0,.8-.05,1.58-.15,2.36-.31,2.27-1.08,4.43-2.3,6.51-1.64,2.79-3.62,4.91-5.94,6.36-2.8,1.74-5.65,2.98-8.51,3.73-2.87.75-5.77,1.44-8.69,2.07-2.93.62-5.83,1.4-8.7,2.32-2.87.93-5.65,2.43-8.35,4.53,2.61,1.39,3.92,2.08,6.54,3.49-.08,8.26-.17,16.52-.25,24.77-2.23,2.51-3.35,3.78-5.59,6.36,9.02-1.24,18.08-2.06,27.16-2.47-2.65-2.56-3.98-3.82-6.62-6.34.05-8.74.08-13.11.13-21.86,15.13-3.31,34.4-9.05,35.92-29.7.08-1.03.11-2.11.09-3.23-.11-8.42.19-17.41-.3-25.37Z"/>
      <path class="cls-8" d="m342.02,478.74c.11-7.54-2.32-13.03-7.3-16.18-8.82-4.74-17.79-9.1-26.86-13.12,0-.41,0-.83,0-1.24-.03-9.99-.07-19.98-.11-29.97,7.54.19,15.08.42,22.62.68,4.4,3.87,6.6,5.86,11,9.99-.22-9-.33-13.48-.55-22.47-11.02,0-22.05-.01-33.07-.02-6.11,0-9.16,0-15.28,0,.18,13.66.36,27.33.53,40.99l.11,9.08c11.03,4.67,21.87,9.66,32.63,15.09.19,11.02.38,22.04.56,33.05-6.81-1.72-10.23-2.48-17.09-3.83-.13-8-.19-12-.31-20,2.29-2.14,3.43-3.21,5.71-5.38-8.69-1.27-17.33-2.35-26.04-3.28,1.93,2.53,2.89,3.8,4.82,6.38.09,7.08.14,10.62.23,17.7.1,8.06,4.02,12.64,11.72,14.2,1.61.33,2.42.5,4.02.85,7.04,1.5,14.1,3.3,21.03,5.37,8.25,2.42,12.23-1.43,12.06-12.12-.14-8.58-.29-17.17-.43-25.76Z"/>
      <path class="cls-15" d="m401.89,471.96c2.17-1.38,3.25-2.09,5.42-3.55-1.91-2.48-2.99-3.85-4.71-5.99-.23-.28-.47-.58-.73-.9-.02-10.91-.05-21.83-.08-32.73.8-12.31-5.43-22.73-16.41-22.71h-19.23c-8.83-.6-15.72,6.48-15.01,17.03.15,9.87.31,19.74.46,29.61l.02,1.22c-2.05,1.25-3.08,1.87-5.13,3.08,2.1,1.8,3.15,2.71,5.25,4.58.23,14.31.45,28.62.68,42.92,0,.54.02.82.02,1.36.28,11.23,6.18,20.84,15.52,24.28v.18c.56.25.84.37,1.41.62,6.75,3.01,10.1,4.62,16.74,8.06.62.33.93.48,1.55.81,9.44,5.44,15.41-2.53,14.33-13.87-.04-18.01-.08-36.01-.12-54.02Zm-32.64,48.02c-.24-18.56-.49-37.12-.72-55.68,2.11-.93,3.18-1.4,5.29-2.37-2.15-2.27-3.24-3.38-5.4-5.56,0-.33,0-.66-.02-.99-.16-12.76-.33-25.53-.49-38.29,6.89.26,10.33.41,17.21.71.11,13.61.22,27.21.33,40.82,0,.27,0,.54,0,.81-1.68,1.19-2.53,1.77-4.21,2.93,1.72,2.32,2.58,3.5,4.29,5.9.16,19.69.33,39.39.49,59.09-6.67-3.13-10.03-4.6-16.79-7.35Z"/>
    </g>
    <path class="cls-30" d="m117.73,472.29c-.2,17.17-.4,34.33-.6,51.5,2.48,2.81,3.71,4.18,6.2,6.87-2.53,1.12-3.8,1.7-6.31,2.88-5.87,2.76-8.79,4.22-14.58,7.31-2.76,1.47-4.13,2.22-6.87,3.76,2.76-5.78,4.15-8.59,6.94-14.07.13-17.89.25-35.78.38-53.67-2.52-1.1-3.77-1.66-6.29-2.82,2.53-2.27,3.8-3.38,6.35-5.55,0-1.42.02-2.84.03-4.26,4.96-1.01,9.92-1.98,14.87-2.89,0,1.14-.02,2.27-.04,3.41,2.33.9,3.49,1.34,5.82,2.2-2.36,2.09-3.55,3.16-5.9,5.33Zm83.22-22.56c-8.72.78-17.48,1.71-26.26,2.79,1.49,1.24,2.34,1.94,3.93,3.25-.25,15.74-.51,31.48-.76,47.22-7.07,1.52-10.59,2.38-17.6,4.29.28-16.49.56-32.99.84-49.48,2.18-1.52,3.27-2.27,5.46-3.73-.24-.15-.48-.3-.7-.43-8.65,1.14-17.33,2.43-26.04,3.85-.19.17-.39.35-.59.54,2.05,1.16,3.08,1.73,5.14,2.85-.23,14.13-.46,28.25-.69,42.37,0,.54-.02.81-.02,1.35-1.13,11.04,6.81,16.32,15.17,12.67v.17c.58-.18.86-.27,1.45-.44,6.94-2.07,10.43-3,17.43-4.65.66-.16.99-.23,1.64-.38,8.69-1.99,15.44-8.11,15.6-18.98.17-13.05.36-26.11.53-39.15,2.27-1.61,3.4-2.4,5.68-3.97-.08-.04-.14-.09-.21-.14Zm25.4,12.91c.03-4.91.06-9.84.09-14.76-4.9.27-9.82.59-14.74.96-.05,5.93-.11,11.85-.17,17.78,1.71-.8,3.91-1.48,6.59-2.01,2.68-.53,5.43-1.19,8.23-1.97Zm18.74-9.1c-1.64,2.79-3.62,4.91-5.94,6.36-2.8,1.74-5.65,2.98-8.51,3.73-2.87.75-5.77,1.44-8.69,2.07-2.93.62-5.83,1.4-8.7,2.32-2.87.93-5.65,2.43-8.35,4.53,2.61,1.39,3.92,2.08,6.54,3.49-.08,8.26-.17,16.52-.25,24.77-2.23,2.51-3.35,3.78-5.59,6.36,9.02-1.24,18.08-2.06,27.16-2.47-2.65-2.56-3.98-3.82-6.62-6.34.05-8.74.08-13.11.13-21.86,15.13-3.31,34.4-9.05,35.92-29.7-4.92.01-9.85.09-14.79.23-.31,2.27-1.08,4.43-2.3,6.51Zm89.63,9.01c-8.82-4.74-17.79-9.1-26.86-13.12,0-.41,0-.83,0-1.24-4.94-.33-9.9-.6-14.86-.81l.11,9.08c11.03,4.67,21.87,9.66,32.63,15.09.19,11.02.38,22.04.56,33.05-6.81-1.72-10.23-2.48-17.09-3.83-.13-8-.19-12-.31-20,2.29-2.14,3.43-3.21,5.71-5.38-8.69-1.27-17.33-2.35-26.04-3.28,1.93,2.53,2.89,3.8,4.82,6.38.09,7.08.14,10.62.23,17.7.1,8.06,4.02,12.64,11.72,14.2,1.61.33,2.42.5,4.02.85,7.04,1.5,14.1,3.3,21.03,5.37,8.25,2.42,12.23-1.43,12.06-12.12-.14-8.58-.29-17.17-.43-25.76.11-7.54-2.32-13.03-7.3-16.18Zm67.16,9.41c2.17-1.38,3.25-2.09,5.42-3.55-1.91-2.48-2.99-3.85-4.71-5.99-5.69-1.38-11.41-2.65-17.14-3.82,0,.27,0,.54,0,.81-1.68,1.19-2.53,1.77-4.21,2.93,1.72,2.32,2.58,3.5,4.29,5.9.16,19.69.33,39.39.49,59.09-6.67-3.13-10.03-4.6-16.79-7.35-.24-18.56-.49-37.12-.72-55.68,2.11-.93,3.18-1.4,5.29-2.37-2.15-2.27-3.24-3.38-5.4-5.56,0-.33,0-.66-.02-.99-5.58-.97-11.18-1.85-16.8-2.65l.02,1.22c-2.05,1.25-3.08,1.87-5.13,3.08,2.1,1.8,3.15,2.71,5.25,4.58.23,14.31.45,28.62.68,42.92,0,.54.02.82.02,1.36.28,11.23,6.18,20.84,15.52,24.28v.18c.56.25.84.37,1.41.62,6.75,3.01,10.1,4.62,16.74,8.06.62.33.93.48,1.55.81,9.44,5.44,15.41-2.53,14.33-13.87-.04-18.01-.08-36.01-.12-54.02Z"/>
  </g>
</svg>