<?xml version="1.0" encoding="UTF-8"?>
<svg id="Layer_1" data-name="Layer 1" xmlns="http://www.w3.org/2000/svg" xmlns:xlink="http://www.w3.org/1999/xlink" viewBox="0 0 492 678">
  <defs>
    <style>
      .cls-1 {
        fill: url(#linear-gradient-2);
      }

      .cls-2 {
        fill: #fff;
      }

      .cls-3 {
        fill: url(#linear-gradient-17);
      }

      .cls-4 {
        fill: url(#linear-gradient-15);
      }

      .cls-5 {
        fill: url(#linear-gradient-18);
      }

      .cls-6 {
        fill: url(#linear-gradient-28);
      }

      .cls-7 {
        fill: url(#linear-gradient-14);
      }

      .cls-8 {
        fill: url(#linear-gradient-36);
      }

      .cls-9 {
        fill: url(#linear-gradient-20);
      }

      .cls-10 {
        fill: url(#linear-gradient-6);
      }

      .cls-11 {
        fill: url(#linear-gradient-35);
      }

      .cls-12 {
        fill: url(#linear-gradient-32);
      }

      .cls-13 {
        fill: url(#linear-gradient-11);
      }

      .cls-14 {
        fill: url(#linear-gradient-10);
      }

      .cls-15 {
        fill: url(#linear-gradient-37);
      }

      .cls-16 {
        fill: url(#linear-gradient-16);
      }

      .cls-17 {
        fill: url(#linear-gradient-31);
      }

      .cls-18 {
        fill: url(#linear-gradient-21);
      }

      .cls-19 {
        fill: url(#linear-gradient-25);
      }

      .cls-20 {
        fill: url(#linear-gradient-5);
      }

      .cls-21 {
        fill: url(#linear-gradient-34);
      }

      .cls-22 {
        fill: url(#linear-gradient-7);
      }

      .cls-23 {
        fill: url(#linear-gradient-24);
      }

      .cls-24 {
        fill: url(#linear-gradient-9);
      }

      .cls-25 {
        fill: url(#linear-gradient-22);
      }

      .cls-26 {
        fill: url(#linear-gradient-3);
      }

      .cls-27 {
        fill: url(#linear-gradient);
      }

      .cls-28 {
        fill: url(#linear-gradient-27);
      }

      .cls-29 {
        fill: url(#linear-gradient-33);
      }

      .cls-30 {
        fill: url(#linear-gradient-38);
      }

      .cls-31 {
        fill: url(#linear-gradient-29);
      }

      .cls-32 {
        fill: url(#linear-gradient-30);
      }

      .cls-33 {
        fill: url(#linear-gradient-23);
      }

      .cls-34 {
        fill: url(#linear-gradient-19);
      }

      .cls-35 {
        fill: url(#linear-gradient-4);
      }

      .cls-36 {
        fill: #010101;
      }

      .cls-37 {
        fill: url(#linear-gradient-8);
      }

      .cls-38 {
        fill: url(#linear-gradient-12);
      }

      .cls-39 {
        fill: url(#linear-gradient-13);
      }

      .cls-40 {
        fill: url(#linear-gradient-26);
      }
    </style>
    <linearGradient id="linear-gradient" x1="251" y1="648.98" x2="251" y2="19.02" gradientUnits="userSpaceOnUse">
      <stop offset="0" stop-color="#cc984b"/>
      <stop offset="1" stop-color="#f4eb83"/>
    </linearGradient>
    <linearGradient id="linear-gradient-2" x1="66.96" y1="219.14" x2="190.46" y2="219.14" gradientUnits="userSpaceOnUse">
      <stop offset="0" stop-color="#f4eb83"/>
      <stop offset="1" stop-color="#cc984b"/>
    </linearGradient>
    <linearGradient id="linear-gradient-3" x1="94.01" y1="214.15" x2="211.59" y2="214.15" gradientUnits="userSpaceOnUse">
      <stop offset="0" stop-color="#cc984b"/>
      <stop offset="1" stop-color="#f4eb83"/>
    </linearGradient>
    <linearGradient id="linear-gradient-4" x1="54.1" y1="181.55" x2="79.27" y2="181.55" xlink:href="#linear-gradient-2"/>
    <linearGradient id="linear-gradient-5" x1="54.17" y1="180.06" x2="79.16" y2="180.06" xlink:href="#linear-gradient"/>
    <linearGradient id="linear-gradient-6" x1="160.8" y1="137.27" x2="189.04" y2="137.27" xlink:href="#linear-gradient-2"/>
    <linearGradient id="linear-gradient-7" x1="160.87" y1="135.6" x2="188.91" y2="135.6" xlink:href="#linear-gradient"/>
    <linearGradient id="linear-gradient-8" x1="-1778.77" y1="219.16" x2="-1655.26" y2="219.16" gradientTransform="translate(-1343.72) rotate(-180) scale(1 -1)" xlink:href="#linear-gradient-2"/>
    <linearGradient id="linear-gradient-9" x1="-1751.71" y1="214.17" x2="-1634.14" y2="214.17" gradientTransform="translate(-1343.72) rotate(-180) scale(1 -1)" xlink:href="#linear-gradient"/>
    <linearGradient id="linear-gradient-10" x1="203.47" y1="146.47" x2="251" y2="146.47" xlink:href="#linear-gradient-2"/>
    <linearGradient id="linear-gradient-11" x1="207.01" y1="160.2" x2="251" y2="160.2" xlink:href="#linear-gradient-3"/>
    <linearGradient id="linear-gradient-12" x1="-1642.25" y1="146.5" x2="-1594.72" y2="146.5" gradientTransform="translate(-1343.72) rotate(-180) scale(1 -1)" xlink:href="#linear-gradient-2"/>
    <linearGradient id="linear-gradient-13" x1="-1638.71" y1="160.22" x2="-1594.72" y2="160.22" gradientTransform="translate(-1343.72) rotate(-180) scale(1 -1)" xlink:href="#linear-gradient-3"/>
    <linearGradient id="linear-gradient-14" x1="-1791.62" y1="181.58" x2="-1766.45" y2="181.58" gradientTransform="translate(-1343.72) rotate(-180) scale(1 -1)" xlink:href="#linear-gradient-2"/>
    <linearGradient id="linear-gradient-15" x1="-1791.56" y1="180.09" x2="-1766.56" y2="180.09" gradientTransform="translate(-1343.72) rotate(-180) scale(1 -1)" xlink:href="#linear-gradient"/>
    <linearGradient id="linear-gradient-16" x1="-1684.93" y1="137.29" x2="-1656.69" y2="137.29" gradientTransform="translate(-1343.72) rotate(-180) scale(1 -1)" xlink:href="#linear-gradient-2"/>
    <linearGradient id="linear-gradient-17" x1="-1684.86" y1="135.62" x2="-1656.82" y2="135.62" gradientTransform="translate(-1343.72) rotate(-180) scale(1 -1)" xlink:href="#linear-gradient"/>
    <linearGradient id="linear-gradient-18" x1="73.54" y1="253.3" x2="251.4" y2="253.3" xlink:href="#linear-gradient-2"/>
    <linearGradient id="linear-gradient-19" x1="84.26" y1="263.32" x2="251.4" y2="263.32" xlink:href="#linear-gradient"/>
    <linearGradient id="linear-gradient-20" x1="251.4" y1="252.83" x2="429.43" y2="252.83" xlink:href="#linear-gradient-2"/>
    <linearGradient id="linear-gradient-21" x1="251.4" y1="262.85" x2="418.53" y2="262.85" xlink:href="#linear-gradient"/>
    <linearGradient id="linear-gradient-22" x1="235.59" y1="275.41" x2="266.22" y2="275.41" gradientUnits="userSpaceOnUse">
      <stop offset="0" stop-color="#511d25"/>
      <stop offset="1" stop-color="#94343b"/>
    </linearGradient>
    <linearGradient id="linear-gradient-23" x1="239.2" y1="278.65" x2="266.22" y2="278.65" gradientUnits="userSpaceOnUse">
      <stop offset="0" stop-color="#94343b"/>
      <stop offset="1" stop-color="#511d25"/>
    </linearGradient>
    <linearGradient id="linear-gradient-24" x1="45.16" y1="861.94" x2="62.85" y2="861.94" gradientTransform="translate(-354.35 -402.8) rotate(-29.8)" xlink:href="#linear-gradient-22"/>
    <linearGradient id="linear-gradient-25" x1="47.52" y1="863.71" x2="62.85" y2="863.71" gradientTransform="translate(-354.35 -402.8) rotate(-29.8)" xlink:href="#linear-gradient-23"/>
    <linearGradient id="linear-gradient-26" x1="-1472.45" y1="-7.28" x2="-1454.75" y2="-7.28" gradientTransform="translate(-892.56 -402.8) rotate(-150.2) scale(1 -1)" xlink:href="#linear-gradient-22"/>
    <linearGradient id="linear-gradient-27" x1="-1470.09" y1="-5.5" x2="-1454.75" y2="-5.5" gradientTransform="translate(-892.56 -402.8) rotate(-150.2) scale(1 -1)" xlink:href="#linear-gradient-23"/>
    <linearGradient id="linear-gradient-28" x1="254.86" y1="335.67" x2="254.86" y2="362.63" xlink:href="#linear-gradient-2"/>
    <linearGradient id="linear-gradient-29" x1="188.5" y1="-226.34" x2="224.67" y2="-226.34" gradientTransform="translate(-11.71 226.45) rotate(16.77)" xlink:href="#linear-gradient-2"/>
    <linearGradient id="linear-gradient-30" x1="188.59" y1="-228.48" x2="224.51" y2="-228.48" gradientTransform="translate(-11.71 226.45) rotate(16.77)" xlink:href="#linear-gradient"/>
    <linearGradient id="linear-gradient-31" x1="254.87" y1="360.11" x2="254.87" y2="371.37" xlink:href="#linear-gradient-2"/>
    <linearGradient id="linear-gradient-32" x1="254.87" y1="374.8" x2="254.87" y2="386.06" xlink:href="#linear-gradient-2"/>
    <linearGradient id="linear-gradient-33" x1="126.31" y1="544.49" x2="114.23" y2="406.4" xlink:href="#linear-gradient"/>
    <linearGradient id="linear-gradient-34" x1="180.63" y1="518.65" x2="170.9" y2="407.46" xlink:href="#linear-gradient"/>
    <linearGradient id="linear-gradient-35" x1="242.43" y1="506.49" x2="233.67" y2="406.4" xlink:href="#linear-gradient"/>
    <linearGradient id="linear-gradient-36" x1="326.67" y1="520.6" x2="316.71" y2="406.75" xlink:href="#linear-gradient"/>
    <linearGradient id="linear-gradient-37" x1="388.96" y1="544.59" x2="376.96" y2="407.45" xlink:href="#linear-gradient"/>
    <linearGradient id="linear-gradient-38" x1="260.57" y1="555.82" x2="251.12" y2="447.85" gradientUnits="userSpaceOnUse">
      <stop offset="0" stop-color="#f4eb83"/>
      <stop offset=".19" stop-color="#f0e47e"/>
      <stop offset=".45" stop-color="#e8d272"/>
      <stop offset=".75" stop-color="#dab65f"/>
      <stop offset="1" stop-color="#cc984b"/>
    </linearGradient>
  </defs>
  <rect class="cls-36" x="-3" y="-9" width="508" height="693"/>
  <g>
    <path class="cls-27" d="m437.67,357.41c2.09-6.67,2.02-13.7-.24-20.48-1.15-3.42-2.78-6.56-4.85-9.37l16-52.27c.55-1.81.74-2.42.83-2.69l3.75-12.26c2.9-9.44,5.38-17.55,7.08-23.12,1.55-5.07,1.82-10.41.82-15.57.39-1.4.77-2.81,1.13-4.22,11.27-8.43,17.93-21.65,17.93-35.86,0-1.44-.07-2.9-.22-4.49-2.01-20.03-17.28-36.36-37.12-39.71-2.44-.41-4.95-.61-7.47-.61-22.33,0-41.42,16.69-44.43,38.88-.26,1.97-.39,3.97-.39,5.94,0,3.62.43,7.2,1.29,10.69-6.4,7.81-19.04,20.92-31.72,20.92-.29,0-.59,0-.89-.02-2.4-3.97-5.73-15.82-4.63-38.53,11.89-8.73,18.89-22.45,18.89-37.34,0-1.53-.08-3.05-.23-4.65-2.08-20.71-17.87-37.59-38.39-41.05-2.55-.44-5.15-.65-7.73-.65-13.69,0-26.3,5.95-34.94,15.89-.55-1.96-1.08-3.92-1.59-5.89,4.06-5.05,7.15-10.9,9.02-17.09.65-2.17,1.16-4.39,1.51-6.6,3.96-24.74-11.16-48.86-35.18-56.1-2.68-.8-5.46-1.39-8.24-1.74-2.07-.26-4.18-.39-6.28-.39-20.42,0-38.67,12.22-46.52,31.16-.62,1.53-1.18,3.09-1.65,4.64-3.88,12.87-2.51,26.48,3.85,38.31,1.33,2.49,2.86,4.85,4.57,7.05-.56,2.2-1.15,4.41-1.77,6.61-8.64-9.94-21.25-15.88-34.94-15.88-2.56,0-5.16.21-7.73.64-20.53,3.47-36.32,20.39-38.41,41.2-.14,1.55-.22,3.07-.22,4.5,0,14.89,7,28.61,18.9,37.34,1.09,22.72-2.24,34.57-4.63,38.53-.3.02-.61.02-.89.02-9.4,0-20.86-7.58-31.72-20.91.86-3.5,1.3-7.08,1.3-10.69,0-2-.14-4.03-.41-6.02-2.98-22.12-22.08-38.79-44.41-38.79-2.5,0-5.01.2-7.47.61-19.85,3.35-35.11,19.73-37.13,39.84-.14,1.46-.21,2.92-.21,4.36,0,14.21,6.66,27.43,17.94,35.87.55,2.17,1.16,4.37,1.8,6.58-.62,4.61-.24,9.34,1.11,13.78l30,97.97c-.15.4-.3.8-.42,1.21-2.26,6.76-2.34,13.79-.24,20.48-2.55,8.22-1.93,16.9,1.78,24.78H28l30.67,34.82v141.08l193.06,90.87,191.6-90.89v-141.06l30.67-34.82h-38.11c3.72-7.88,4.33-16.57,1.77-24.8Zm7.8,37.69l-15.03,17.06v137.77l-178.73,84.78-180.15-84.79v-137.76l-15.03-17.06h47l-12.64-11.26c-2.88-2.57-4.47-5.26-5.16-6.66-2.76-5.52-3.06-11.71-.83-17.44l.92-2.36-.93-2.35c-1.81-4.58-1.93-9.28-.36-14.01.25-.75.55-1.51.89-2.25l1.03-2.24-31.39-102.53c-.91-2.98-1.09-6.17-.52-9.24l.3-1.54-.46-1.5c-.97-3.27-1.86-6.54-2.62-9.71l-.59-2.46-2.12-1.4c-8.94-5.92-14.28-15.87-14.28-26.61,0-1.02.05-2.07.15-3.09,1.43-14.33,12.31-26.01,26.43-28.39,1.76-.3,3.56-.44,5.34-.44,15.91,0,29.51,11.88,31.64,27.62.19,1.43.29,2.87.29,4.3,0,3.43-.55,6.82-1.63,10.07l-1.08,3.25,2.09,2.72c9.99,12.98,25.72,28.46,43.94,28.46.96,0,1.96-.05,3.05-.14,3.15-.3,5.23-1.36,7.16-3.69,6.56-7.88,9.56-27.15,8.01-51.56l-.2-3.3-2.8-1.75c-9.68-6.08-15.69-16.94-15.69-28.34,0-1.04.05-2.15.16-3.27,1.5-15,12.9-27.23,27.71-29.72,1.87-.31,3.75-.47,5.59-.47,13.43,0,25.88,8.38,30.99,20.85l6.6,16.12,5.49-16.53c2.65-7.97,4.98-16.09,6.95-24.13l.8-3.28-2.25-2.53c-1.95-2.18-3.66-4.63-5.07-7.27-4.73-8.81-5.75-18.92-2.86-28.5.35-1.15.76-2.32,1.22-3.44,5.83-14.08,19.42-23.18,34.6-23.18,1.56,0,3.13.09,4.66.29,2.08.27,4.15.7,6.15,1.3,17.85,5.38,29.1,23.32,26.15,41.73-.26,1.64-.64,3.29-1.12,4.91-1.65,5.46-4.57,10.56-8.46,14.75l-2.37,2.55.83,3.38c1.94,7.9,4.22,15.79,6.78,23.48l5.5,16.51,6.59-16.11c5.1-12.48,17.56-20.86,30.99-20.86,1.86,0,3.73.15,5.58.47,14.81,2.5,26.2,14.68,27.7,29.6.11,1.18.17,2.26.17,3.39,0,11.4-6.01,22.26-15.68,28.34l-2.8,1.75-.2,3.3c-1.55,24.41,1.45,43.68,7.99,51.55,1.92,2.33,4,3.41,7.24,3.71,1.03.08,2.03.13,2.99.13,18.24,0,33.96-15.48,43.93-28.47l2.09-2.71-1.08-3.25c-1.08-3.24-1.62-6.63-1.62-10.07,0-1.41.09-2.85.27-4.24,2.14-15.78,15.74-27.68,31.65-27.68,1.8,0,3.59.14,5.32.44,14.14,2.38,25,14.01,26.44,28.24.11,1.17.16,2.2.16,3.25,0,10.74-5.34,20.69-14.27,26.61l-2.12,1.4-.59,2.47c-.61,2.53-1.29,5.09-2.02,7.62l-.49,1.68.43,1.7c.87,3.41.78,7.01-.26,10.41-1.7,5.57-4.19,13.67-7.08,23.11l-3.75,12.23c-.08.24-.27.87-.84,2.74l-18.11,59.16,2.56,2.73c2,2.13,3.52,4.69,4.5,7.6,1.57,4.72,1.45,9.43-.36,14.01l-.93,2.35.92,2.35c2.22,5.73,1.93,11.94-.83,17.47-.85,1.69-2.43,4.22-5.15,6.64l-12.61,11.26h39.23Z"/>
    <path class="cls-1" d="m146.03,273.46c-.47.15-.94.3-1.42.44-5.12,1.53-10.16,2.3-14.98,2.3-13.08,0-24.87-5.69-35.62-16.61-.56-.77-1.11-1.55-1.66-2.35-18.57-27.02-23.6-55.4-24.93-67.2-.41-3.61-.47-5.67-.47-5.67,0,0,5.19,11.02,14.7,23.69,13.64,18.17,36.17,39.73,65.04,37.12,34.41-3.11,34.92-53.41,32.18-83.08l6.61,17.46c14.45,38.15-3.79,82.3-39.46,93.91Z"/>
    <path class="cls-26" d="m211.59,234.69c-15.19,22.72-34.72,43.87-57.43,50.62-5.12,1.53-10.16,2.3-14.98,2.3-17.06,0-31.93-9.69-45.16-28.02,10.76,10.92,22.54,16.61,35.62,16.61,4.82,0,9.87-.77,14.98-2.3.47-.14.94-.29,1.42-.44,35.67-11.61,53.9-55.76,39.46-93.91l-6.61-17.46c-1.13-12.12-2.79-20.8-2.9-21.4l35.61,94Z"/>
    <g>
      <path class="cls-35" d="m79.27,181.55c0,5.97-4.16,10.97-9.73,12.25-.92.22-1.87.33-2.85.33-6.95,0-12.58-5.63-12.58-12.59,0-.43.02-.85.06-1.27.57-5.65,4.87-10.2,10.41-11.14.68-.11,1.39-.18,2.11-.18,6.37,0,11.64,4.73,12.47,10.88.07.56.11,1.12.11,1.7Z"/>
      <path class="cls-20" d="m79.16,179.85c-.54,5.4-4.49,9.79-9.67,10.98-.92.22-1.87.33-2.85.33-6.37,0-11.64-4.74-12.47-10.88.57-5.65,4.87-10.2,10.41-11.14.68-.11,1.39-.18,2.11-.18,6.37,0,11.64,4.73,12.47,10.88Z"/>
      <path class="cls-2" d="m60.07,182.05c0,4.46,2.94,8.24,6.98,9.5-.17.01-.34.02-.5.02-5.49,0-9.95-4.45-9.95-9.95,0-4.92,3.58-9.02,8.28-9.81.54-.09,1.09-.14,1.67-.14,1.04,0,2.03.16,2.97.45-.4.02-.79.06-1.17.12-4.7.79-8.28,4.89-8.28,9.81Z"/>
    </g>
    <g>
      <path class="cls-10" d="m189.04,137.27c0,6.7-4.66,12.31-10.92,13.75-1.03.24-2.1.37-3.2.37-7.79,0-14.12-6.32-14.12-14.12,0-.48.03-.96.07-1.43.64-6.34,5.47-11.44,11.68-12.49.77-.13,1.56-.2,2.37-.2,7.15,0,13.06,5.31,13.99,12.21.08.62.13,1.26.13,1.91Z"/>
      <path class="cls-22" d="m188.91,135.36c-.61,6.06-5.04,10.98-10.85,12.32-1.03.24-2.1.37-3.2.37-7.14,0-13.05-5.32-13.99-12.21.64-6.34,5.47-11.44,11.68-12.49.77-.13,1.56-.2,2.37-.2,7.15,0,13.06,5.31,13.99,12.21Z"/>
      <path class="cls-2" d="m167.27,137.66c0,5.01,3.3,9.24,7.83,10.66-.19.01-.38.02-.56.02-6.16,0-11.16-5-11.16-11.16,0-5.52,4.02-10.12,9.29-11.01.6-.1,1.23-.16,1.87-.16,1.16,0,2.28.18,3.34.51-.45.02-.89.07-1.31.14-5.27.89-9.29,5.48-9.29,11.01Z"/>
    </g>
    <path class="cls-37" d="m355.97,273.48c.47.15.94.3,1.42.44,5.12,1.53,10.16,2.3,14.98,2.3,13.08,0,24.87-5.69,35.62-16.61.56-.77,1.11-1.55,1.66-2.35,18.57-27.02,23.6-55.4,24.93-67.2.41-3.61.47-5.67.47-5.67,0,0-5.19,11.02-14.7,23.69-13.64,18.17-36.17,39.73-65.04,37.12-34.41-3.11-34.92-53.41-32.18-83.08l-6.61,17.46c-14.45,38.15,3.79,82.3,39.46,93.91Z"/>
    <path class="cls-24" d="m290.42,234.71c15.19,22.72,34.72,43.87,57.43,50.62,5.12,1.53,10.16,2.3,14.98,2.3,17.06,0,31.93-9.69,45.16-28.02-10.76,10.92-22.54,16.61-35.62,16.61-4.82,0-9.87-.77-14.98-2.3-.47-.14-.94-.29-1.42-.44-35.67-11.61-53.9-55.76-39.46-93.91l6.61-17.46c1.13-12.12,2.79-20.8,2.9-21.4l-35.61,94Z"/>
    <g>
      <path class="cls-14" d="m251,63.17v89.47l-4.35,12.41c-.02.05-.12.36-.32.89-2.01,5.48-13.3,35.17-31.54,63.84l-7.78-20.55-3.54-9.34c9.99-15.12,39.88-65.49,47.53-136.72Z"/>
      <path class="cls-13" d="m251,90.62v62.02l-4.35,12.41c-.02.05-.12.36-.32.89-2.01,5.48-13.3,35.17-31.54,63.84l-7.78-20.55c10.24-15.99,34.49-58.78,43.99-118.6Z"/>
      <path class="cls-38" d="m251,63.19v89.47s4.35,12.41,4.35,12.41c.02.05.12.36.32.89,2.01,5.48,13.3,35.17,31.54,63.84l7.78-20.55,3.54-9.34c-9.99-15.12-39.88-65.49-47.53-136.72Z"/>
      <path class="cls-39" d="m251,90.64v62.02s4.35,12.41,4.35,12.41c.02.05.12.36.32.89,2.01,5.48,13.3,35.17,31.54,63.84l7.78-20.55c-10.24-15.99-34.49-58.78-43.99-118.6Z"/>
    </g>
    <g>
      <path class="cls-7" d="m422.73,181.58c0,5.97,4.16,10.97,9.73,12.25.92.22,1.87.33,2.85.33,6.95,0,12.58-5.63,12.58-12.59,0-.43-.02-.85-.06-1.27-.57-5.65-4.87-10.2-10.41-11.14-.68-.11-1.39-.18-2.11-.18-6.37,0-11.64,4.73-12.47,10.88-.07.56-.11,1.12-.11,1.7Z"/>
      <path class="cls-4" d="m422.85,179.87c.54,5.4,4.49,9.79,9.67,10.98.92.22,1.87.33,2.85.33,6.37,0,11.64-4.74,12.47-10.88-.57-5.65-4.87-10.2-10.41-11.14-.68-.11-1.39-.18-2.11-.18-6.37,0-11.64,4.73-12.47,10.88Z"/>
      <path class="cls-2" d="m441.94,182.08c0,4.46-2.94,8.24-6.98,9.5.17.01.34.02.5.02,5.49,0,9.95-4.45,9.95-9.95,0-4.92-3.58-9.02-8.28-9.81-.54-.09-1.09-.14-1.67-.14-1.04,0-2.03.16-2.97.45.4.02.79.06,1.17.12,4.7.79,8.28,4.89,8.28,9.81Z"/>
    </g>
    <path class="cls-16" d="m312.97,137.29c0,6.7,4.66,12.31,10.92,13.75,1.03.24,2.1.37,3.2.37,7.79,0,14.12-6.32,14.12-14.12,0-.48-.03-.96-.07-1.43-.64-6.34-5.47-11.44-11.68-12.49-.77-.13-1.56-.2-2.37-.2-7.15,0-13.06,5.31-13.99,12.21-.08.62-.13,1.26-.13,1.91Z"/>
    <path class="cls-3" d="m313.1,135.38c.61,6.06,5.04,10.98,10.85,12.32,1.03.24,2.1.37,3.2.37,7.14,0,13.05-5.32,13.99-12.21-.64-6.34-5.47-11.44-11.68-12.49-.77-.13-1.56-.2-2.37-.2-7.15,0-13.06,5.31-13.99,12.21Z"/>
    <path class="cls-2" d="m334.73,137.68c0,5.01-3.3,9.24-7.83,10.66.19.01.38.02.56.02,6.16,0,11.16-5,11.16-11.16,0-5.52-4.02-10.12-9.29-11.01-.6-.1-1.23-.16-1.87-.16-1.16,0-2.28.18-3.34.51.45.02.89.07,1.31.14,5.27.89,9.29,5.48,9.29,11.01Z"/>
    <g>
      <path class="cls-5" d="m251.4,166.94v163.24c-15.66,0-31.33.25-46.95.94-7.02.31-14.03.67-21.05,1.09-1.41.08-2.81.17-4.22.26-1.22.07-2.44.15-3.67.23-.31.02-.62.04-.93.07-.99.06-1.99.13-2.97.2-1.75.12-3.5.24-5.25.36-1.34.1-2.67.2-4.01.3-1.22.09-2.42.18-3.64.27-2.98.23-5.96.47-8.93.72-13.46,1.12-26.75,2.9-39.93,4.69-.82.11-1.57.23-2.24.35l-23.36-76.3-10.72-35.02c2.95,9.03,27.46,78.29,82.22,61.99,58.55-17.41,95.63-123.39,95.63-123.39Z"/>
      <path class="cls-34" d="m251.4,186.98v143.2c-15.66,0-31.33.25-46.95.94-7.02.31-14.03.67-21.05,1.09-1.41.08-2.81.17-4.22.26-1.22.07-2.44.15-3.67.23-.31.02-.62.04-.93.07-.99.06-1.99.13-2.97.2-1.75.12-3.5.24-5.25.36-1.34.1-2.67.2-4.01.3-1.22.09-2.42.18-3.64.27-2.98.23-5.96.47-8.93.72-13.46,1.12-26.75,2.9-39.93,4.69-.82.11-1.57.23-2.24.35l-23.36-76.3c11.66,22.44,35.17,53,73.54,41.59,50.55-15.04,85.11-96.12,93.6-117.97Z"/>
      <path class="cls-9" d="m429.43,227.79c-2.41,7.89-6.39,20.89-10.89,35.57h0s-1.93,6.29-1.93,6.29l-.52,1.72-5.96,19.47-.6,1.96-14.06,45.91c-11.74-1.59-23.56-3.1-35.52-4.1-11.16-.94-22.37-1.75-33.61-2.41-7-.42-14.03-.78-21.05-1.09-16.79-.73-33.6-.97-50.42-.93-1.16,0-2.31,0-3.47,0v-163.24c13.13,55.41,119.56,214.88,178.03,60.85Z"/>
      <path class="cls-18" d="m418.53,263.37l-1.93,6.28-.52,1.72-5.96,19.47-.6,1.96-14.06,45.91c-11.74-1.59-23.56-3.1-35.52-4.1-11.16-.94-22.37-1.75-33.61-2.41-7-.42-14.03-.78-21.05-1.09-16.79-.73-33.6-.97-50.42-.93-1.16,0-2.31,0-3.47,0v-143.2c15.68,53.62,105.89,191.18,167.14,76.39Z"/>
    </g>
    <g>
      <polygon class="cls-25" points="266.22 277.32 250.91 302.91 239.2 283.35 235.59 277.32 250.91 247.91 254.28 254.38 266.22 277.32"/>
      <polygon class="cls-33" points="266.22 277.32 250.91 302.91 239.2 283.35 254.28 254.38 266.22 277.32"/>
    </g>
    <g>
      <g>
        <path class="cls-2" d="m108.48,318.17l-14.79-35.14s12.26,14.17,30.04,13.5c0,0-13.73,5-21.12-1.38l5.88,23.02Z"/>
        <g>
          <polygon class="cls-23" points="129.43 315.4 129.09 330.19 117.07 324.65 113.36 322.95 112.56 306.51 116.27 308.47 129.43 315.4"/>
          <polygon class="cls-19" points="129.43 315.4 129.09 330.19 117.07 324.65 116.27 308.47 129.43 315.4"/>
        </g>
      </g>
      <g>
        <path class="cls-2" d="m393.52,318.17l14.79-35.14s-12.26,14.17-30.04,13.5c0,0,13.73,5,21.12-1.38l-5.88,23.02Z"/>
        <g>
          <polygon class="cls-40" points="372.56 315.4 372.91 330.19 384.93 324.65 388.63 322.95 389.44 306.51 385.72 308.47 372.56 315.4"/>
          <polygon class="cls-28" points="372.56 315.4 372.91 330.19 384.93 324.65 385.72 308.47 372.56 315.4"/>
        </g>
      </g>
    </g>
    <path class="cls-6" d="m403.04,352.81c-2.1,3.22-1.81,6.39.44,9.56-78.78-2.33-156.14-2.92-231.86-1.5-21.99.41-43.85.99-65.55,1.75,1.59-2.15,2.29-4.29,1.97-6.44-.14-.95-.48-1.91-1.04-2.87-.54-.94-1.29-1.89-2.25-2.84-3.49-3.46-2.59-4.63,5.11-5.68,13.18-1.79,26.47-3.57,39.93-4.69,2.98-.25,5.95-.49,8.93-.72,1.22-.1,2.42-.18,3.64-.27,1.34-.1,2.67-.2,4.01-.3,1.75-.13,3.49-.24,5.25-.36.98-.07,1.98-.13,2.97-.2.31-.02.62-.05.93-.07l3.67-.23c1.4-.09,2.81-.17,4.22-.25,7.01-.42,14.03-.79,21.05-1.09,15.56-.69,31.16-.94,46.77-.94,1.22,0,2.44,0,3.65,0,1.22,0,2.43,0,3.65,0,15.6,0,31.19.26,46.76.94,7.01.3,14.05.67,21.05,1.09,11.24.66,22.45,1.47,33.61,2.4,13.45,1.12,26.74,2.9,39.93,4.69,7.69,1.06,8.59,2.22,5.1,5.68-.79.78-1.44,1.56-1.94,2.34Z"/>
    <g>
      <path class="cls-31" d="m268.71,74.55c-2.48,8.22-10.27,13.37-18.47,12.82-1.35-.08-2.72-.32-4.07-.73-9.56-2.88-14.98-12.97-12.09-22.53.18-.59.39-1.17.61-1.72,3.12-7.54,10.93-12.02,18.94-11,.99.13,1.98.33,2.98.63,8.77,2.64,14.06,11.34,12.65,20.14-.13.8-.31,1.59-.55,2.39Z"/>
      <path class="cls-32" d="m269.26,72.16c-2.99,7.2-10.24,11.6-17.86,11.1-1.35-.08-2.72-.32-4.07-.73-8.76-2.64-14.05-11.35-12.64-20.14,3.12-7.54,10.93-12.02,18.94-11,.99.13,1.98.33,2.98.63,8.77,2.64,14.06,11.34,12.65,20.14Z"/>
      <path class="cls-2" d="m241.88,66.99c-1.85,6.14.63,12.55,5.67,15.96-.23-.05-.47-.12-.7-.19-7.56-2.28-11.84-10.25-9.56-17.82,2.04-6.78,8.67-10.92,15.46-10.07.78.1,1.56.26,2.35.5,1.43.43,2.73,1.06,3.9,1.86-.55-.14-1.11-.24-1.66-.32-6.79-.85-13.42,3.29-15.46,10.07Z"/>
    </g>
    <path class="cls-17" d="m399.16,371.32c-2.44.07-4.9.05-7.35.05h-136.91v-.04h-.08v.04H117.92c-2.44,0-4.91.02-7.34-.05-6.08-.18-9.2-2.58-7.17-5.47.38-.55.82-1.09,1.31-1.62.47-.49.88-.99,1.25-1.48.04-.04.07-.08.1-.13,96.46-3.36,195.75-3.26,297.41-.25.08.13.17.25.27.38.36.49.78.98,1.25,1.48.48.53.94,1.07,1.32,1.62,2.03,2.89-1.09,5.29-7.16,5.47Z"/>
    <path class="cls-12" d="m399.16,386.01c-2.44.07-4.9.05-7.35.05h-136.91v-.04h-.08v.04H117.92c-2.44,0-4.91.02-7.34-.05-6.08-.18-9.2-2.58-7.17-5.47.38-.55.82-1.09,1.31-1.62.47-.49.88-.99,1.25-1.48.04-.04.07-.08.1-.13,96.46-3.36,195.75-3.26,297.41-.25.08.13.17.25.27.38.36.49.78.98,1.25,1.48.48.53.94,1.07,1.32,1.62,2.03,2.89-1.09,5.29-7.16,5.47Z"/>
    <polygon class="cls-2" points="198.01 300.4 251 200.93 284.57 263.32 251 216.46 198.01 300.4"/>
    <g>
      <path class="cls-2" d="m144.52,536.39h3.38l13.84,19.45v-19.45h3.21v24.4h-3.38l-13.84-19.45v19.45h-3.21v-24.4Z"/>
      <path class="cls-2" d="m177.87,551.2l-9.41-14.81h3.62l7.39,11.78,7.39-11.78h3.62l-9.41,14.81v9.58h-3.21v-9.58Z"/>
      <path class="cls-2" d="m191.29,548.66c0-7.46,5.65-12.69,12.58-12.69,4.36,0,8.36,2.09,10.66,5.75l-2.65,1.67c-1.71-2.93-4.64-4.5-8.02-4.5-5.23,0-9.27,3.76-9.27,9.69s4.04,9.69,9.27,9.69c3.49,0,6.48-1.71,8.12-4.5l2.61,1.64c-2.23,3.55-6.13,5.79-10.77,5.79-7.11,0-12.55-5.23-12.55-12.55Z"/>
      <path class="cls-2" d="m228.19,536.39h3.73l9.76,19.62,9.72-19.62h3.73v24.4h-3.21v-18.89l-9.03,18.19h-2.48l-9.03-18.19v18.89h-3.21v-24.4Z"/>
      <path class="cls-2" d="m261.75,536.39h16.73v2.93h-13.52v7.25h11.95v2.93h-11.95v8.36h13.52v2.93h-16.73v-24.4Z"/>
      <path class="cls-2" d="m282.42,548.66c0-7.46,5.65-12.69,12.58-12.69,4.36,0,8.36,2.09,10.66,5.75l-2.65,1.67c-1.71-2.93-4.64-4.5-8.02-4.5-5.23,0-9.27,3.76-9.27,9.69s4.04,9.69,9.27,9.69c3.49,0,6.48-1.71,8.12-4.5l2.61,1.64c-2.23,3.55-6.13,5.79-10.77,5.79-7.11,0-12.55-5.23-12.55-12.55Z"/>
      <path class="cls-2" d="m309.08,548.66c0-7.46,5.65-12.69,12.58-12.69,4.36,0,8.36,2.09,10.66,5.75l-2.65,1.67c-1.71-2.93-4.64-4.5-8.02-4.5-5.23,0-9.27,3.76-9.27,9.69s4.04,9.69,9.27,9.69c3.49,0,6.48-1.71,8.12-4.5l2.61,1.64c-2.23,3.55-6.13,5.79-10.77,5.79-7.11,0-12.55-5.23-12.55-12.55Z"/>
      <path class="cls-2" d="m344.1,536.39h3.45l9.93,24.4h-3.35l-2.58-6.45h-11.47l-2.58,6.45h-3.35l9.93-24.4Zm6.34,15.16l-4.6-11.57-4.64,11.57h9.24Z"/>
    </g>
    <polygon class="cls-2" points="251 592.04 255.38 600.91 265.16 602.33 258.08 609.23 259.75 618.97 251 614.37 242.26 618.97 243.93 609.23 236.85 602.33 246.63 600.91 251 592.04"/>
    <g>
      <g>
        <polygon class="cls-2" points="286.04 586.36 288.91 592.17 295.31 593.1 290.68 597.61 291.77 603.99 286.04 600.98 280.32 603.99 281.41 597.61 276.78 593.1 283.18 592.17 286.04 586.36"/>
        <polygon class="cls-2" points="310.12 579.25 312.43 583.93 317.6 584.68 313.86 588.33 314.74 593.48 310.12 591.05 305.49 593.48 306.37 588.33 302.63 584.68 307.8 583.93 310.12 579.25"/>
        <polygon class="cls-2" points="331.34 572.84 333.08 576.37 336.97 576.94 334.15 579.68 334.82 583.56 331.34 581.73 327.85 583.56 328.52 579.68 325.7 576.94 329.59 576.37 331.34 572.84"/>
      </g>
      <g>
        <polygon class="cls-2" points="215.96 586.36 213.09 592.17 206.69 593.1 211.32 597.61 210.23 603.99 215.96 600.98 221.68 603.99 220.59 597.61 225.22 593.1 218.82 592.17 215.96 586.36"/>
        <polygon class="cls-2" points="191.88 579.25 189.57 583.93 184.4 584.68 188.14 588.33 187.26 593.48 191.88 591.05 196.51 593.48 195.63 588.33 199.37 584.68 194.2 583.93 191.88 579.25"/>
        <polygon class="cls-2" points="170.66 572.84 168.92 576.37 165.03 576.94 167.85 579.68 167.18 583.56 170.66 581.73 174.15 583.56 173.48 579.68 176.3 576.94 172.41 576.37 170.66 572.84"/>
      </g>
    </g>
    <g>
      <g>
        <path class="cls-29" d="m89.6,408.55v28.88c2.91-5.54,4.38-8.22,7.33-13.45,4.5-.28,6.76-.41,11.27-.67-.11,14.34-.2,28.68-.31,43.02,0,1.42-.02,2.85-.03,4.27-2.55,2.17-3.82,3.28-6.36,5.55,2.52,1.16,3.78,1.72,6.29,2.82-.13,17.9-.25,35.8-.38,53.71-2.8,5.48-4.19,8.3-6.95,14.08,2.74-1.54,4.11-2.3,6.87-3.77,5.79-3.09,8.71-4.56,14.59-7.31,2.52-1.18,3.78-1.76,6.32-2.88-2.49-2.69-3.72-4.06-6.2-6.87.2-17.18.39-34.36.6-51.53,2.36-2.18,3.54-3.24,5.91-5.34-2.33-.86-3.5-1.3-5.82-2.2.02-1.14.03-2.27.04-3.41.16-13.65.32-27.29.48-40.95,4.44-.23,6.67-.34,11.12-.55,2.67,4.27,4,6.34,6.66,10.41.29-9.56.44-14.33.73-23.87-17.38.01-34.77.04-52.15.07Z"/>
        <path class="cls-21" d="m205.92,451.81c-2.1-1.35-3.22-2.06-5.37-3.46.13-9.49.2-14.24.33-23.75.27-11.27-7.16-16.51-16.14-16.47h-19.25c-8.86-.64-15.89,6.21-15.56,16.82-.17,10.15-.33,20.3-.5,30.44-1.9,1.67-2.94,2.6-4.67,4.18-.19.17-.39.35-.59.54,2.06,1.16,3.09,1.73,5.14,2.85-.23,14.14-.46,28.27-.69,42.39,0,.54-.02.81-.02,1.35-1.13,11.05,6.81,16.33,15.18,12.68v.17c.58-.18.86-.27,1.45-.44,6.94-2.07,10.44-3.01,17.44-4.65.66-.16.99-.23,1.65-.38,8.7-1.99,15.45-8.11,15.61-18.99.17-13.06.36-26.12.53-39.18,2.28-1.61,3.41-2.4,5.68-3.97-.08-.04-.14-.09-.21-.14Zm-23.1,53.29c-7.08,1.52-10.59,2.38-17.61,4.29.28-16.5.56-33.01.84-49.51,2.18-1.52,3.28-2.27,5.46-3.73-.24-.15-.48-.3-.7-.43-1.7-1.05-2.75-1.7-4.64-2.89.2-11.64.39-23.29.59-34.93,6.98-.18,10.47-.27,17.46-.41-.17,11.1-.36,22.2-.53,33.3-1.76,1.39-2.64,2.1-4.39,3.53.11.1.23.2.34.28,1.49,1.24,2.34,1.94,3.94,3.25-.25,15.75-.51,31.5-.76,47.25Z"/>
        <path class="cls-11" d="m266.98,420.26c-.47-7.59-5.64-11.99-14.27-11.99s-12.63,0-21.05,0h-19.42c1.92,2.39,2.87,3.58,4.8,5.94-.12,12.24-.24,24.48-.37,36.71-.05,5.93-.11,11.85-.17,17.79,1.71-.8,3.91-1.48,6.6-2.01,2.68-.53,5.43-1.19,8.24-1.97.03-4.92.06-9.84.09-14.77.06-10.61.12-21.22.19-31.83,7.28-.05,10.93-.07,18.22-.07h2.71c0,9.56,0,19.12,0,28.68,0,.8-.05,1.59-.15,2.36-.31,2.27-1.08,4.43-2.31,6.51-1.65,2.8-3.63,4.92-5.95,6.37-2.8,1.74-5.65,2.98-8.52,3.74-2.87.75-5.77,1.44-8.7,2.07-2.94.62-5.83,1.4-8.71,2.32-2.87.93-5.66,2.43-8.36,4.53,2.62,1.39,3.92,2.09,6.55,3.49-.08,8.26-.17,16.53-.25,24.78-2.23,2.51-3.35,3.78-5.59,6.37,9.03-1.25,18.1-2.06,27.18-2.47-2.65-2.56-3.98-3.82-6.63-6.34.05-8.75.08-13.12.13-21.87,15.14-3.32,34.42-9.05,35.94-29.72.08-1.04.11-2.11.09-3.23-.11-8.42.19-17.42-.3-25.39Z"/>
        <path class="cls-8" d="m347.08,480.83c.11-7.55-2.32-13.04-7.3-16.19-8.83-4.74-17.8-9.1-26.88-13.13,0-.41,0-.83,0-1.25-.03-10-.07-19.99-.11-29.99,7.55.19,15.08.42,22.63.68,4.41,3.87,6.61,5.87,11,9.99-.22-9-.33-13.49-.55-22.49-11.03,0-22.06-.01-33.09-.02-6.11,0-9.17,0-15.29,0,.18,13.67.36,27.35.53,41.02l.11,9.08c11.03,4.67,21.88,9.67,32.65,15.1.19,11.02.38,22.05.56,33.07-6.82-1.72-10.24-2.48-17.1-3.83-.13-8-.19-12.01-.31-20.01,2.29-2.14,3.44-3.22,5.72-5.39-8.69-1.27-17.34-2.35-26.05-3.28,1.93,2.53,2.89,3.8,4.82,6.39.09,7.08.14,10.62.23,17.71.1,8.06,4.03,12.64,11.72,14.21,1.61.33,2.42.5,4.03.85,7.05,1.5,14.11,3.3,21.05,5.37,8.25,2.43,12.24-1.43,12.07-12.12-.14-8.59-.29-17.18-.43-25.77Z"/>
        <path class="cls-15" d="m406.98,474.05c2.17-1.38,3.25-2.09,5.42-3.55-1.91-2.48-2.99-3.85-4.72-5.99-.23-.28-.47-.58-.73-.9-.02-10.92-.05-21.84-.08-32.75.8-12.32-5.43-22.74-16.42-22.73h-19.24c-8.84-.6-15.73,6.49-15.02,17.04.15,9.88.31,19.76.46,29.63l.02,1.22c-2.06,1.25-3.08,1.87-5.13,3.09,2.1,1.8,3.15,2.72,5.26,4.58.23,14.32.46,28.63.68,42.95,0,.54.02.82.02,1.36.28,11.23,6.18,20.85,15.53,24.3v.18c.56.25.84.37,1.41.62,6.75,3.01,10.1,4.63,16.75,8.07.62.33.93.49,1.55.81,9.45,5.44,15.42-2.53,14.34-13.88-.04-18.02-.08-36.04-.12-54.05Zm-32.66,48.05c-.24-18.58-.49-37.14-.72-55.72,2.12-.93,3.18-1.4,5.29-2.38-2.15-2.27-3.24-3.38-5.4-5.56,0-.33,0-.66-.02-.99-.16-12.77-.33-25.55-.49-38.32,6.89.26,10.34.41,17.22.71.11,13.61.22,27.23.33,40.84,0,.27,0,.54,0,.81-1.68,1.19-2.53,1.77-4.22,2.93,1.72,2.32,2.58,3.5,4.29,5.9.16,19.71.33,39.42.49,59.12-6.67-3.14-10.03-4.61-16.8-7.36Z"/>
      </g>
      <path class="cls-30" d="m122.65,474.38c-.2,17.18-.4,34.36-.6,51.53,2.48,2.81,3.72,4.18,6.2,6.87-2.53,1.12-3.8,1.7-6.32,2.88-5.88,2.76-8.8,4.22-14.59,7.31-2.76,1.47-4.13,2.22-6.87,3.77,2.76-5.78,4.15-8.6,6.95-14.08.13-17.9.25-35.8.38-53.71-2.52-1.1-3.78-1.66-6.29-2.82,2.53-2.27,3.81-3.38,6.36-5.55,0-1.42.02-2.85.03-4.27,4.97-1.01,9.93-1.98,14.88-2.9,0,1.14-.02,2.27-.04,3.41,2.33.9,3.5,1.34,5.82,2.2-2.37,2.09-3.55,3.16-5.91,5.34Zm83.27-22.57c-8.73.78-17.49,1.71-26.28,2.79,1.49,1.24,2.34,1.94,3.94,3.25-.25,15.75-.51,31.5-.76,47.25-7.08,1.52-10.59,2.38-17.61,4.29.28-16.5.56-33.01.84-49.51,2.18-1.52,3.28-2.27,5.46-3.73-.24-.15-.48-.3-.7-.43-8.65,1.14-17.34,2.43-26.05,3.85-.19.17-.39.35-.59.54,2.06,1.16,3.09,1.73,5.14,2.85-.23,14.14-.46,28.27-.69,42.39,0,.54-.02.81-.02,1.35-1.13,11.05,6.81,16.33,15.18,12.68v.17c.58-.18.86-.27,1.45-.44,6.94-2.07,10.44-3.01,17.44-4.65.66-.16.99-.23,1.65-.38,8.7-1.99,15.45-8.11,15.61-18.99.17-13.06.36-26.12.53-39.18,2.28-1.61,3.41-2.4,5.68-3.97-.08-.04-.14-.09-.21-.14Zm25.41,12.92c.03-4.92.06-9.84.09-14.77-4.91.27-9.83.59-14.75.96-.05,5.93-.11,11.85-.17,17.79,1.71-.8,3.91-1.48,6.6-2.01,2.68-.53,5.43-1.19,8.24-1.97Zm18.76-9.11c-1.65,2.8-3.63,4.92-5.95,6.37-2.8,1.74-5.65,2.98-8.52,3.74-2.87.75-5.77,1.44-8.7,2.07-2.94.62-5.83,1.4-8.71,2.32-2.87.93-5.66,2.43-8.36,4.53,2.62,1.39,3.92,2.09,6.55,3.49-.08,8.26-.17,16.53-.25,24.78-2.23,2.51-3.35,3.78-5.59,6.37,9.03-1.25,18.1-2.06,27.18-2.47-2.65-2.56-3.98-3.82-6.63-6.34.05-8.75.08-13.12.13-21.87,15.14-3.32,34.42-9.05,35.94-29.72-4.92.01-9.85.09-14.8.23-.31,2.27-1.08,4.43-2.31,6.51Zm89.69,9.02c-8.83-4.74-17.8-9.1-26.88-13.13,0-.41,0-.83,0-1.25-4.94-.33-9.9-.6-14.87-.81l.11,9.08c11.03,4.67,21.88,9.67,32.65,15.1.19,11.02.38,22.05.56,33.07-6.82-1.72-10.24-2.48-17.1-3.83-.13-8-.19-12.01-.31-20.01,2.29-2.14,3.44-3.22,5.72-5.39-8.69-1.27-17.34-2.35-26.05-3.28,1.93,2.53,2.89,3.8,4.82,6.39.09,7.08.14,10.62.23,17.71.1,8.06,4.03,12.64,11.72,14.21,1.61.33,2.42.5,4.03.85,7.05,1.5,14.11,3.3,21.05,5.37,8.25,2.43,12.24-1.43,12.07-12.12-.14-8.59-.29-17.18-.43-25.77.11-7.55-2.32-13.04-7.3-16.19Zm67.2,9.41c2.17-1.38,3.25-2.09,5.42-3.55-1.91-2.48-2.99-3.85-4.72-5.99-5.7-1.38-11.41-2.65-17.15-3.82,0,.27,0,.54,0,.81-1.68,1.19-2.53,1.77-4.22,2.93,1.72,2.32,2.58,3.5,4.29,5.9.16,19.71.33,39.42.49,59.12-6.67-3.14-10.03-4.61-16.8-7.36-.24-18.58-.49-37.14-.72-55.72,2.12-.93,3.18-1.4,5.29-2.38-2.15-2.27-3.24-3.38-5.4-5.56,0-.33,0-.66-.02-.99-5.58-.97-11.19-1.85-16.81-2.65l.02,1.22c-2.06,1.25-3.08,1.87-5.13,3.09,2.1,1.8,3.15,2.72,5.26,4.58.23,14.32.46,28.63.68,42.95,0,.54.02.82.02,1.36.28,11.23,6.18,20.85,15.53,24.3v.18c.56.25.84.37,1.41.62,6.75,3.01,10.1,4.63,16.75,8.07.62.33.93.49,1.55.81,9.45,5.44,15.42-2.53,14.34-13.88-.04-18.02-.08-36.04-.12-54.05Z"/>
    </g>
  </g>
</svg>